<svg width="302" height="294" viewBox="0 0 302 294" fill="none" xmlns="http://www.w3.org/2000/svg">
<g clip-path="url(#clip0_5_3632)">
<path d="M283.821 80.9221C280.996 75.8271 277.863 70.9098 274.438 66.1977C272.038 62.8917 269.502 59.6961 266.83 56.6108H266.823C261.988 51.0256 256.73 45.8212 251.096 41.044C249.943 40.0646 248.774 39.1052 247.589 38.1659C236.898 29.6606 225.042 22.7329 212.384 17.5945L212.496 36.0923L213.707 246.956H108.721L102.817 36.4901L103.256 18.2878C51.7848 39.9357 15.6441 90.8336 15.6441 150.176C15.6345 162.424 17.1972 174.623 20.2938 186.474C21.6017 191.484 23.1852 196.417 25.037 201.252C25.7056 203.007 26.4109 204.746 27.1529 206.47C27.5106 207.309 27.875 208.141 28.2527 208.97C28.7374 210.053 29.2421 211.133 29.7602 212.199C30.1613 213.038 30.5736 213.872 30.997 214.7C31.5419 215.786 32.1046 216.863 32.6851 217.932C33.133 218.771 33.5943 219.603 34.0623 220.432C41.6122 233.787 51.2533 245.845 62.6188 256.149C65.8579 259.087 69.2284 261.873 72.7304 264.506C97.5094 283.125 127.666 293.192 158.661 293.192C189.656 293.192 219.812 283.125 244.591 264.506C246.496 263.075 248.363 261.596 250.19 260.07C251.403 259.06 252.597 258.032 253.77 256.985C254.081 256.707 254.392 256.43 254.699 256.149C265.178 246.65 274.196 235.655 281.461 223.521C284.129 219.072 286.548 214.479 288.708 209.762C289.279 208.519 289.833 207.264 290.369 205.999C292.836 200.195 294.911 194.233 296.58 188.152C296.837 187.213 297.086 186.27 297.325 185.324V185.321C297.365 185.157 297.409 184.99 297.449 184.826C297.696 183.83 297.934 182.827 298.161 181.824V181.821C298.896 178.589 299.517 175.317 300.023 172.007C300.086 171.582 300.15 171.158 300.21 170.733C300.233 170.58 300.257 170.426 300.273 170.272V170.269C300.634 167.712 300.927 165.135 301.152 162.54C301.5 158.466 301.675 154.344 301.677 150.176C301.715 125.948 295.569 102.111 283.821 80.9221Z" fill="#F2F2F2"/>
<path d="M269.776 236.507C278.241 225.069 281.496 208.958 274.911 196.344C268.736 210.533 257.741 222.08 243.871 228.942C238.513 231.569 232.279 233.933 229.799 239.361C228.256 242.738 228.55 246.726 229.79 250.226C231.031 253.726 233.141 256.84 235.229 259.911L235.339 260.831C248.484 255.382 261.311 247.945 269.776 236.507Z" fill="#E6E6E6"/>
<path d="M274.63 196.445C274.251 208.217 270.172 219.57 262.973 228.892C261.459 230.926 259.634 232.709 257.564 234.175C255.502 235.538 253.113 236.324 250.645 236.451C248.346 236.616 245.975 236.518 243.756 237.239C242.625 237.625 241.589 238.245 240.716 239.059C239.842 239.874 239.15 240.863 238.686 241.964C237.457 244.676 237.276 247.667 237.201 250.599C237.117 253.854 237.082 257.236 235.547 260.195C235.361 260.554 235.928 260.821 236.114 260.463C238.785 255.315 237.05 249.295 238.642 243.883C239.385 241.358 240.893 239.041 243.414 238.029C245.619 237.144 248.064 237.243 250.393 237.096C252.803 237.008 255.154 236.33 257.242 235.123C259.379 233.767 261.27 232.058 262.834 230.068C266.426 225.643 269.3 220.681 271.351 215.364C273.725 209.309 275.045 202.892 275.255 196.391C275.268 195.988 274.643 196.046 274.63 196.445Z" fill="white"/>
<path d="M265.468 226.027C267.196 227.023 269.221 227.371 271.183 227.011C273.144 226.651 274.914 225.606 276.176 224.061C276.43 223.748 275.955 223.338 275.7 223.652C274.528 225.092 272.88 226.066 271.052 226.398C269.225 226.729 267.34 226.397 265.736 225.46C265.387 225.257 265.121 225.825 265.468 226.027Z" fill="white"/>
<path d="M251.822 236.521C250.728 232.594 251.154 228.399 253.016 224.772C253.201 224.413 252.634 224.145 252.449 224.504C250.519 228.281 250.084 232.648 251.231 236.732C251.341 237.121 251.931 236.908 251.822 236.521Z" fill="white"/>
<path d="M272.894 209.338C272.145 209.092 271.469 208.664 270.926 208.092C270.384 207.52 269.991 206.823 269.785 206.062C269.68 205.672 269.091 205.886 269.195 206.273C269.427 207.113 269.86 207.883 270.458 208.516C271.057 209.149 271.8 209.625 272.625 209.905C272.701 209.937 272.786 209.94 272.864 209.913C272.941 209.885 273.005 209.829 273.043 209.755C273.078 209.68 273.082 209.594 273.054 209.516C273.026 209.438 272.968 209.374 272.894 209.338Z" fill="white"/>
<path d="M227.79 186.306C227.849 186.551 227.907 186.797 227.962 187.046C228.73 190.353 229.229 193.716 229.452 197.103C229.473 197.365 229.491 197.63 229.505 197.892C229.956 206.058 228.888 214.236 226.353 222.012C225.342 225.105 224.097 228.117 222.628 231.022C220.6 235.032 218.082 239.22 217.515 243.539C217.45 243.989 217.414 244.443 217.406 244.897L234.208 260.894C234.264 260.911 234.317 260.933 234.374 260.95L235.015 261.619C235.102 261.475 235.188 261.323 235.274 261.179C235.324 261.095 235.371 261.008 235.421 260.924C235.454 260.867 235.486 260.81 235.518 260.761C235.529 260.742 235.54 260.723 235.547 260.708C235.58 260.658 235.605 260.609 235.633 260.563C236.118 259.717 236.598 258.865 237.072 258.008C237.076 258.005 237.076 258.005 237.076 257.997C240.674 251.462 243.758 244.569 245.698 237.426C245.756 237.211 245.819 236.993 245.869 236.771C246.726 233.546 247.317 230.258 247.638 226.937C247.808 225.118 247.886 223.292 247.871 221.465C247.823 216.745 247.034 212.063 245.531 207.588C242.534 198.669 236.718 190.807 228.427 186.619C228.215 186.512 228.006 186.409 227.79 186.306Z" fill="#E6E6E6"/>
<path d="M227.625 186.555C234.41 196.182 237.988 207.703 237.853 219.48C237.869 222.016 237.484 224.539 236.715 226.955C235.889 229.284 234.454 231.35 232.56 232.938C230.823 234.454 228.872 235.803 227.534 237.715C226.864 238.703 226.41 239.822 226.202 240.999C225.995 242.175 226.039 243.382 226.33 244.54C226.982 247.445 228.639 249.942 230.344 252.328C232.237 254.978 234.245 257.699 234.801 260.986C234.868 261.385 235.482 261.257 235.415 260.859C234.448 255.141 229.439 251.378 227.451 246.099C226.524 243.635 226.334 240.877 227.737 238.551C228.965 236.517 230.976 235.124 232.748 233.605C234.618 232.083 236.088 230.126 237.028 227.906C237.918 225.537 238.399 223.033 238.449 220.503C238.653 214.807 237.961 209.115 236.397 203.635C234.646 197.371 231.837 191.452 228.091 186.135C227.859 185.806 227.395 186.228 227.625 186.555Z" fill="white"/>
<path d="M238.12 215.691C240.099 215.445 241.926 214.504 243.275 213.036C244.625 211.567 245.408 209.667 245.486 207.674C245.5 207.271 244.874 207.23 244.86 207.634C244.791 209.489 244.061 211.259 242.802 212.624C241.542 213.989 239.837 214.859 237.993 215.076C237.592 215.124 237.721 215.738 238.12 215.691Z" fill="white"/>
<path d="M233.542 232.285C230.304 229.808 228.119 226.202 227.422 222.186C227.353 221.788 226.739 221.915 226.808 222.313C227.541 226.491 229.822 230.239 233.197 232.81C233.519 233.054 233.862 232.529 233.542 232.285Z" fill="white"/>
<path d="M234 197.894C233.254 198.149 232.457 198.214 231.68 198.084C230.902 197.955 230.169 197.634 229.546 197.151C229.228 196.902 228.886 197.428 229.202 197.675C229.893 198.205 230.703 198.559 231.561 198.704C232.42 198.849 233.301 198.782 234.128 198.509C234.208 198.489 234.277 198.44 234.323 198.371C234.368 198.303 234.385 198.219 234.371 198.138C234.354 198.057 234.305 197.986 234.236 197.94C234.166 197.894 234.082 197.878 234 197.894Z" fill="white"/>
<path d="M6.67656 172.447C-0.83094 160.359 -2.76642 144.037 4.82168 131.999C9.82367 146.643 19.8441 159.045 33.1099 167.012C38.2371 170.066 44.2578 172.928 46.2888 178.54C47.5525 182.032 46.9355 185.983 45.4146 189.37C43.8935 192.758 41.5372 195.69 39.2067 198.581L39.0223 199.489C26.3641 192.989 14.1841 184.535 6.67656 172.447Z" fill="#E6E6E6"/>
<path d="M5.09343 132.123C4.51478 143.887 7.6575 155.534 14.0752 165.41C15.419 167.561 17.0935 169.486 19.0368 171.115C20.9812 172.641 23.2987 173.618 25.7486 173.946C28.0267 174.297 30.3976 174.392 32.5507 175.291C33.646 175.767 34.6283 176.47 35.433 177.352C36.2378 178.235 36.8468 179.278 37.2203 180.412C38.2244 183.215 38.1616 186.211 37.9983 189.139C37.8171 192.39 37.5773 195.764 38.8671 198.838C39.0233 199.211 38.4363 199.431 38.2802 199.059C36.0362 193.711 38.2542 187.852 37.1074 182.329C36.5723 179.751 35.2573 177.32 32.8268 176.106C30.7014 175.045 28.2566 174.945 25.9469 174.609C23.5523 174.325 21.2637 173.459 19.2811 172.086C17.2611 170.561 15.5152 168.704 14.1184 166.593C10.898 161.891 8.43678 156.712 6.82505 151.246C4.95099 145.018 4.15621 138.514 4.47507 132.018C4.49497 131.616 5.1132 131.724 5.09343 132.123Z" fill="white"/>
<path d="M11.8215 162.352C10.0183 163.203 7.97112 163.387 6.04543 162.868C4.11974 162.35 2.44097 161.164 1.30894 159.522C1.08102 159.189 1.58775 158.819 1.81597 159.153C2.86729 160.684 4.43118 161.788 6.22537 162.267C8.01956 162.746 9.92586 162.568 11.6002 161.765C11.9643 161.591 12.1835 162.178 11.8215 162.352Z" fill="white"/>
<path d="M24.57 173.92C25.9794 170.095 25.8953 165.879 24.3344 162.113C24.1795 161.74 24.7665 161.519 24.9212 161.891C26.5382 165.813 26.6168 170.201 25.1414 174.178C25.0005 174.557 24.4299 174.297 24.57 173.92Z" fill="white"/>
<path d="M5.77695 145.114C6.54331 144.93 7.25191 144.558 7.83913 144.032C8.42635 143.507 8.87379 142.843 9.14128 142.102C9.2773 141.721 9.84781 141.982 9.71268 142.36C9.41334 143.178 8.9183 143.91 8.2708 144.493C7.6233 145.075 6.84305 145.49 5.99822 145.701C5.92026 145.727 5.8351 145.723 5.76005 145.689C5.685 145.655 5.62569 145.594 5.59418 145.518C5.56527 145.44 5.56825 145.354 5.60247 145.279C5.6367 145.203 5.6994 145.144 5.77695 145.114Z" fill="white"/>
<path d="M52.6027 125.823C52.5245 126.064 52.4463 126.304 52.3713 126.548C51.337 129.781 50.5671 133.093 50.0692 136.45C50.0266 136.709 49.9873 136.972 49.9522 137.232C48.8388 145.334 49.2393 153.573 51.1334 161.529C51.89 164.694 52.8863 167.797 54.1137 170.811C55.809 174.974 57.9784 179.352 58.1933 183.703C58.2208 184.157 58.2202 184.612 58.1915 185.065L40.145 199.644C40.0873 199.656 40.0328 199.673 39.9749 199.686L39.281 200.301C39.2068 200.15 39.1332 199.992 39.059 199.841C39.0156 199.753 38.9763 199.663 38.9329 199.575C38.9052 199.516 38.8778 199.456 38.8494 199.404C38.8402 199.385 38.8311 199.365 38.8251 199.349C38.7968 199.297 38.776 199.246 38.751 199.198C38.3367 198.315 37.928 197.427 37.5247 196.535C37.5214 196.531 37.5214 196.531 37.5221 196.523C34.4668 189.717 31.953 182.596 30.5998 175.32C30.5592 175.101 30.515 174.878 30.4826 174.653C29.8909 171.369 29.5685 168.043 29.5186 164.708C29.4972 162.881 29.5683 161.054 29.7315 159.235C30.1624 154.535 31.33 149.931 33.1913 145.594C36.9033 136.948 43.3391 129.585 51.9427 126.084C52.1629 125.995 52.3792 125.909 52.6027 125.823Z" fill="#E6E6E6"/>
<path d="M52.7471 126.085C45.2024 135.13 40.6994 146.321 39.8775 158.071C39.6557 160.597 39.8334 163.142 40.4042 165.613C41.038 168.002 42.3 170.178 44.059 171.914C45.6666 173.566 47.5023 175.069 48.6803 177.083C49.2681 178.123 49.6293 179.276 49.7405 180.465C49.8516 181.654 49.7101 182.853 49.3252 183.984C48.4395 186.826 46.5854 189.181 44.6921 191.421C42.5901 193.907 40.3673 196.457 39.5464 199.688C39.4469 200.079 38.8453 199.902 38.9446 199.511C40.3728 193.89 45.6715 190.547 48.0812 185.446C49.2057 183.066 49.6197 180.333 48.4097 177.901C47.3516 175.774 45.46 174.222 43.8178 172.563C42.077 170.895 40.7712 168.825 40.0146 166.536C39.3199 164.102 39.0444 161.567 39.1999 159.041C39.4593 153.348 40.6122 147.731 42.6164 142.396C44.87 136.295 48.1507 130.624 52.3166 125.629C52.5746 125.32 53.0034 125.778 52.7471 126.085Z" fill="white"/>
<path d="M39.9195 154.272C37.9669 153.866 36.2221 152.78 34.9966 151.207C33.7711 149.634 33.1447 147.676 33.2293 145.684C33.2334 145.602 33.269 145.526 33.3284 145.47C33.3879 145.415 33.4665 145.385 33.5479 145.386C33.6292 145.387 33.7068 145.42 33.7644 145.478C33.8219 145.535 33.855 145.613 33.8565 145.694C33.7743 147.549 34.358 149.373 35.5022 150.835C36.6463 152.298 38.2757 153.303 40.0961 153.67C40.4916 153.75 40.3127 154.352 39.9195 154.272Z" fill="white"/>
<path d="M43.1337 171.184C46.562 168.978 49.0331 165.561 50.0542 161.615C50.155 161.224 50.7567 161.401 50.6559 161.791C49.5857 165.896 47.007 169.447 43.4343 171.734C43.0936 171.952 42.7948 171.4 43.1337 171.184Z" fill="white"/>
<path d="M45.4713 136.869C46.1941 137.184 46.9837 137.314 47.7691 137.247C48.5545 137.181 49.3111 136.921 49.9711 136.49C50.3088 136.268 50.6072 136.82 50.2717 137.04C49.5403 137.513 48.7043 137.799 47.8368 137.875C46.9692 137.95 46.0964 137.811 45.2947 137.471C45.2164 137.445 45.1509 137.391 45.1114 137.319C45.072 137.246 45.0615 137.162 45.0821 137.082C45.1059 137.002 45.1601 136.935 45.233 136.896C45.3059 136.856 45.3915 136.846 45.4713 136.869Z" fill="white"/>
<path d="M146.04 49.0569C157.013 49.0569 165.909 40.1611 165.909 29.1874C165.909 18.2138 157.013 9.3179 146.04 9.3179C135.066 9.3179 126.17 18.2138 126.17 29.1874C126.17 40.1611 135.066 49.0569 146.04 49.0569Z" fill="#FF6584"/>
<path d="M206.876 28.1506C205.086 26.2592 203.195 24.4649 201.213 22.7755C197.343 19.493 193.057 16.7019 188.281 14.9436C186.482 14.2795 184.624 13.7903 182.732 13.4829C182.504 13.4461 182.28 13.4093 182.053 13.3792C182.036 13.3776 182.02 13.3776 182.003 13.3792C181.968 13.3693 181.932 13.3626 181.896 13.3592C181.431 13.299 180.967 13.2522 180.499 13.2188C177.978 13.0513 175.448 13.2791 172.998 13.894C171.576 14.2526 170.189 14.7358 168.853 15.338C167.514 15.9936 166.216 16.7292 164.965 17.5409C164.294 17.9488 163.602 18.3225 162.893 18.6607C160.822 19.6418 158.63 20.3432 156.375 20.7465C154.851 21.0198 153.309 21.1718 151.762 21.2011C150.418 21.2279 149.151 21.2746 147.878 21.7593C146.518 22.27 145.297 23.0916 144.312 24.1584C143.328 25.2252 142.606 26.5076 142.205 27.9032C142.173 28.0271 142.182 28.1579 142.23 28.2764C142.279 28.3949 142.363 28.4949 142.472 28.5617C142.817 28.8091 143.151 29.0898 143.515 29.3105C143.837 29.4572 144.18 29.5509 144.531 29.5879C145.106 29.7082 145.682 29.8252 146.26 29.9389C148.382 30.3601 150.514 30.7333 152.654 31.0587C156.96 31.7105 161.289 32.1696 165.644 32.4359C165.67 32.4398 165.697 32.442 165.724 32.4426C170.643 32.7395 175.575 32.7874 180.499 32.5863C181.244 32.5562 181.986 32.5194 182.732 32.476C185.837 32.3022 188.935 32.028 192.024 31.6537C194.882 31.306 197.729 30.8748 200.565 30.3601C202.591 29.9924 204.608 29.5823 206.618 29.1299C206.716 29.1011 206.805 29.0475 206.875 28.9744C206.946 28.9013 206.997 28.8112 207.023 28.7128C207.049 28.6143 207.049 28.5108 207.023 28.4123C206.997 28.3139 206.947 28.2237 206.876 28.1506Z" fill="#E6E6E6"/>
<path d="M165.577 54.6446C162.7 51.5675 159.531 48.7777 156.114 46.3147C154.981 45.5191 153.814 44.7704 152.614 44.0851C151.143 43.2358 149.615 42.4887 148.041 41.8489C147.69 41.7051 147.336 41.5681 146.982 41.4377C144.969 40.6921 142.881 40.1676 140.754 39.8733C140.738 39.87 140.721 39.8733 140.704 39.87C140.671 39.8633 140.634 39.8566 140.6 39.8499C139.57 39.7163 138.531 39.6526 137.492 39.6594C136.746 39.6594 135.998 39.6995 135.256 39.7731C134.057 39.8912 132.868 40.0967 131.699 40.3881C131.121 40.5319 130.546 40.699 129.981 40.8895C129.157 41.1607 128.348 41.4753 127.557 41.8321C127.544 41.8388 127.534 41.8422 127.521 41.8489C126.193 42.4981 124.907 43.2282 123.67 44.035C123.643 44.0517 123.613 44.0684 123.586 44.0851C122.18 44.9261 120.693 45.6227 119.147 46.1643C117.82 46.6284 116.459 46.9882 115.076 47.2406C113.553 47.5146 112.01 47.6655 110.463 47.6919C109.119 47.7186 107.852 47.7654 106.582 48.2534C105.222 48.764 104.001 49.5855 103.016 50.6523C102.03 51.7191 101.308 53.0016 100.906 54.3973C100.875 54.5212 100.884 54.6518 100.932 54.7702C100.981 54.8885 101.065 54.9885 101.174 55.0558C101.518 55.3031 101.855 55.5806 102.216 55.8012C102.538 55.9491 102.881 56.0428 103.233 56.0786C103.808 56.199 104.383 56.3193 104.961 56.433C107.083 56.8542 109.216 57.2263 111.359 57.5494C114.297 57.994 117.247 58.3495 120.21 58.6158C121.614 58.7461 123.019 58.8531 124.425 58.9367C128.032 59.1539 131.642 59.2386 135.256 59.1907C136.001 59.1807 136.746 59.164 137.492 59.1406C141.918 59.0102 146.33 58.6781 150.729 58.1444C155.632 57.5512 160.502 56.7089 165.32 55.6207C165.417 55.5921 165.505 55.5389 165.576 55.4661C165.647 55.3934 165.698 55.3035 165.724 55.2053C165.75 55.1071 165.75 55.0039 165.724 54.9057C165.698 54.8075 165.648 54.7175 165.577 54.6446Z" fill="#E6E6E6"/>
<path d="M116.051 1.31917L133.555 243.215L98.546 246.323V4.39678C102.718 1.13818 108.706 0.628361 116.051 1.31917Z" fill="#CCCCCC"/>
<path d="M202.456 1.31917L184.952 243.215L219.961 246.323V4.39678C215.789 1.13818 209.801 0.628361 202.456 1.31917Z" fill="#CCCCCC"/>
<path d="M220.784 4.50233C219.698 1.83879 217.388 -3.05176e-05 214.717 -3.05176e-05H103.416C99.7025 -3.05176e-05 96.684 3.56318 96.684 7.94717V248.372C96.6516 250.596 97.4832 252.746 99.0038 254.37C99.7995 255.206 100.807 255.81 101.919 256.118C102.406 256.253 102.91 256.321 103.416 256.319H214.717C215.223 256.321 215.727 256.253 216.215 256.118C219.21 255.313 221.45 252.148 221.45 248.372V7.94718C221.453 6.76668 221.227 5.5968 220.784 4.50233ZM219.217 248.372C219.217 251.3 217.198 253.683 214.717 253.683H103.416C101.36 253.683 99.6189 252.046 99.0874 249.816C98.9738 249.343 98.9166 248.859 98.9169 248.372V7.94718C98.9169 5.01926 100.936 2.63985 103.416 2.63985H214.717C215.174 2.63948 215.627 2.72101 216.055 2.88055C217.883 3.55137 219.217 5.56776 219.217 7.94717V248.372Z" fill="#CCCCCC"/>
<path d="M220.333 73.0808H97.8011V75.3154H220.333V73.0808Z" fill="#CCCCCC"/>
<path d="M220.333 26.9518H97.8011V29.1864H220.333V26.9518Z" fill="#CCCCCC"/>
<path d="M220.333 110.325H97.8011V112.559H220.333V110.325Z" fill="#CCCCCC"/>
<path d="M137.564 1.00281H135.329V141.982H137.564V1.00281Z" fill="#CCCCCC"/>
<path d="M182.805 1.00281H180.57V141.982H182.805V1.00281Z" fill="#CCCCCC"/>
<path d="M234.299 242.354H87.5586C84.8928 242.357 82.3372 243.417 80.4522 245.302C78.5673 247.187 77.5069 249.743 77.5038 252.408C77.5025 253.69 77.7488 254.96 78.2292 256.149C78.9756 258.013 80.2632 259.611 81.9259 260.737C83.5887 261.863 85.5505 262.465 87.5586 262.467H234.299C236.054 262.466 237.779 262.006 239.301 261.132C240.824 260.258 242.091 259.001 242.977 257.486C243.229 257.058 243.448 256.611 243.632 256.149C244.112 254.96 244.358 253.69 244.357 252.408C244.353 249.742 243.292 247.187 241.407 245.302C239.521 243.417 236.965 242.357 234.299 242.354Z" fill="#CCCCCC"/>
<path d="M220.333 136.768H98.546V144.216H220.333V136.768Z" fill="#CCCCCC"/>
<path d="M158.322 134.533H160.557C161.643 134.533 162.685 134.965 163.454 135.733C164.222 136.501 164.654 137.543 164.654 138.63H154.225C154.225 138.092 154.331 137.559 154.537 137.062C154.743 136.565 155.045 136.113 155.425 135.733C155.806 135.353 156.257 135.051 156.755 134.845C157.252 134.639 157.784 134.533 158.322 134.533Z" fill="#CCCCCC"/>
<path d="M161.588 157.775C174.335 157.775 184.668 147.442 184.668 134.695C184.668 121.948 174.335 111.614 161.588 111.614C148.841 111.614 138.508 121.948 138.508 134.695C138.508 147.442 148.841 157.775 161.588 157.775Z" fill="#FFB8B8"/>
<path d="M135.841 112.491C136.016 109.84 137.768 107.128 143.337 105.711C143.337 105.711 152.894 93.4899 165.882 99.8988C165.882 99.8988 172.178 98.8156 176.846 105.348C176.846 105.348 181.475 102.618 183.428 107.457C183.428 107.457 188.857 117.327 186.858 127.395C184.859 137.462 183.836 138.719 183.836 138.719C183.836 138.719 186.384 117.894 171.711 119.338C157.038 120.782 145.224 115.622 141.901 126.92C139.142 136.301 139.49 141.173 139.49 141.173C139.49 141.173 130.263 131.815 133.4 124.445C135.005 120.676 135.572 116.578 135.841 112.491Z" fill="#2F2E41"/>
<path d="M98.8232 260.829H226.488C225.634 251.09 225.077 213.865 225.077 211.415C225.077 200.609 216.235 188.817 216.235 188.817L213.07 187.067L186.639 178.821L179.799 169.936C179.082 169.003 178.159 168.249 177.102 167.733C176.045 167.217 174.883 166.953 173.707 166.962L152.1 167.124C150.198 167.139 148.371 167.863 146.976 169.155L133.596 181.567L113.972 190.938L113.938 190.905L113.733 191.057L110.821 193.154L108.948 194.508C108.948 194.508 104.033 200.405 100.105 218.089C99.5144 220.748 99.0997 255.18 98.8232 260.829Z" fill="#15A3B7"/>
<path d="M256.036 256.149C255.729 256.43 255.418 256.707 255.107 256.985C253.93 258.031 252.737 259.059 251.527 260.07C249.699 261.594 247.832 263.073 245.928 264.506H74.0675C70.5677 261.878 67.1972 259.093 63.9559 256.149H256.036Z" fill="#CCCCCC"/>
<path d="M193.04 258.155H129.864L131.201 251.804H191.703L193.04 258.155Z" fill="#2F2E41"/>
<path d="M250.197 230.745H233.757C233.386 230.743 233.02 230.824 232.683 230.98C232.346 231.136 232.048 231.363 231.809 231.647C231.58 231.603 231.347 231.58 231.113 231.58C230.601 231.58 230.094 231.68 229.62 231.876C229.147 232.072 228.716 232.359 228.354 232.721C227.991 233.083 227.704 233.513 227.508 233.986C227.311 234.46 227.21 234.967 227.21 235.479C227.21 235.992 227.311 236.499 227.508 236.972C227.704 237.446 227.991 237.876 228.354 238.238C228.716 238.6 229.147 238.887 229.62 239.083C230.094 239.279 230.601 239.379 231.113 239.379C231.702 239.379 232.283 239.244 232.811 238.984L233.086 242.354L234.175 255.671C234.227 255.837 234.296 255.997 234.382 256.149C234.603 256.553 234.928 256.891 235.324 257.126C235.72 257.362 236.172 257.486 236.632 257.486H247.322C247.783 257.485 248.235 257.361 248.631 257.126C249.028 256.891 249.354 256.553 249.575 256.149C249.659 255.997 249.727 255.837 249.779 255.671L252.654 234.07C252.772 233.686 252.798 233.279 252.731 232.883C252.663 232.486 252.503 232.111 252.264 231.788C252.025 231.464 251.714 231.201 251.355 231.02C250.996 230.839 250.599 230.745 250.197 230.745ZM231.113 238.266C230.375 238.265 229.667 237.971 229.145 237.448C228.624 236.926 228.33 236.218 228.33 235.479C228.33 234.741 228.624 234.033 229.145 233.51C229.667 232.988 230.375 232.694 231.113 232.693C231.163 232.693 231.21 232.707 231.26 232.71C231.15 233.159 231.164 233.629 231.301 234.07L232.477 237.895C232.063 238.135 231.593 238.263 231.113 238.266Z" fill="#3F3D56"/>
<path d="M213.066 160.07H109.002C108.108 160.072 107.251 160.427 106.619 161.06C105.986 161.692 105.631 162.549 105.629 163.443V233.666C105.63 234.56 105.986 235.418 106.618 236.05C107.25 236.682 108.108 237.038 109.002 237.039H213.066C213.96 237.038 214.818 236.682 215.45 236.05C216.083 235.418 216.438 234.56 216.439 233.666V163.443C216.438 162.549 216.082 161.692 215.45 161.06C214.817 160.427 213.96 160.072 213.066 160.07Z" fill="#3F3D56"/>
<path d="M172.754 216.338H148.409C148.064 216.338 147.734 216.475 147.491 216.719C147.248 216.963 147.111 217.293 147.112 217.638V256.095H174.054V217.638C174.054 217.467 174.02 217.298 173.955 217.14C173.89 216.982 173.794 216.839 173.673 216.718C173.552 216.597 173.409 216.502 173.251 216.436C173.093 216.371 172.924 216.337 172.754 216.338ZM160.663 238.189C159.902 238.185 159.173 237.881 158.634 237.343C158.096 236.804 157.792 236.075 157.788 235.314V230.878C157.789 230.116 158.092 229.386 158.631 228.848C159.171 228.309 159.901 228.007 160.663 228.007C161.425 228.007 162.156 228.309 162.695 228.848C163.234 229.386 163.537 230.116 163.538 230.878V235.314C163.534 236.075 163.23 236.804 162.692 237.343C162.154 237.881 161.424 238.185 160.663 238.189Z" fill="#2F2E41"/>
<path d="M147.028 254.865V258.576C147.029 258.768 147.105 258.952 147.241 259.088C147.377 259.224 147.561 259.301 147.754 259.301H173.412C173.604 259.3 173.788 259.223 173.924 259.088C174.06 258.952 174.136 258.768 174.137 258.576V254.865H147.028Z" fill="#3F3D56"/>
<path d="M210.853 232.932C211.761 232.932 212.496 232.196 212.496 231.289C212.496 230.382 211.761 229.646 210.853 229.646C209.946 229.646 209.21 230.382 209.21 231.289C209.21 232.196 209.946 232.932 210.853 232.932Z" fill="#2F2E41"/>
<path d="M122.139 228.906C122.063 228.906 121.988 228.921 121.919 228.95C121.849 228.979 121.785 229.021 121.732 229.074C121.679 229.128 121.636 229.191 121.607 229.261C121.578 229.331 121.564 229.405 121.564 229.481V232.439C121.564 232.591 121.625 232.737 121.733 232.845C121.84 232.952 121.986 233.013 122.139 233.013C122.291 233.013 122.437 232.952 122.545 232.845C122.652 232.737 122.713 232.591 122.713 232.439V229.481C122.713 229.405 122.699 229.331 122.67 229.261C122.641 229.191 122.599 229.128 122.545 229.074C122.492 229.021 122.428 228.979 122.359 228.95C122.289 228.921 122.214 228.906 122.139 228.906Z" fill="#2F2E41"/>
<path d="M125.261 228.906C125.185 228.906 125.11 228.921 125.041 228.95C124.971 228.979 124.908 229.021 124.854 229.074C124.801 229.128 124.758 229.191 124.73 229.261C124.701 229.331 124.686 229.405 124.686 229.481V232.439C124.686 232.592 124.746 232.738 124.854 232.846C124.962 232.954 125.108 233.014 125.261 233.014C125.413 233.014 125.559 232.954 125.667 232.846C125.775 232.738 125.836 232.592 125.836 232.439V229.481C125.836 229.405 125.821 229.331 125.792 229.261C125.763 229.191 125.721 229.128 125.667 229.074C125.614 229.021 125.551 228.979 125.481 228.95C125.411 228.921 125.336 228.906 125.261 228.906Z" fill="#2F2E41"/>
<path d="M128.383 228.906C128.307 228.906 128.232 228.921 128.163 228.95C128.093 228.979 128.03 229.021 127.976 229.074C127.923 229.128 127.88 229.191 127.852 229.261C127.823 229.331 127.808 229.405 127.808 229.481V232.439C127.808 232.591 127.869 232.737 127.977 232.845C128.084 232.952 128.23 233.013 128.383 233.013C128.535 233.013 128.681 232.952 128.789 232.845C128.896 232.737 128.957 232.591 128.958 232.439V229.481C128.958 229.405 128.943 229.331 128.914 229.261C128.885 229.191 128.843 229.128 128.789 229.074C128.736 229.021 128.672 228.979 128.603 228.95C128.533 228.921 128.458 228.906 128.383 228.906Z" fill="#2F2E41"/>
<path d="M131.505 228.906C131.429 228.906 131.355 228.921 131.285 228.95C131.215 228.979 131.152 229.021 131.098 229.074C131.045 229.128 131.003 229.191 130.974 229.261C130.945 229.331 130.93 229.405 130.93 229.481V232.439C130.93 232.591 130.991 232.737 131.099 232.845C131.207 232.952 131.353 233.013 131.505 233.013C131.657 233.013 131.803 232.952 131.911 232.845C132.019 232.737 132.079 232.591 132.08 232.439V229.481C132.08 229.405 132.065 229.331 132.036 229.261C132.007 229.191 131.965 229.128 131.911 229.074C131.858 229.021 131.795 228.979 131.725 228.95C131.655 228.921 131.58 228.906 131.505 228.906Z" fill="#2F2E41"/>
<path d="M133.996 256.483C138.796 256.483 142.687 252.592 142.687 247.792C142.687 242.992 138.796 239.101 133.996 239.101C129.196 239.101 125.305 242.992 125.305 247.792C125.305 252.592 129.196 256.483 133.996 256.483Z" fill="#FFB8B8"/>
<path d="M194.711 258.154C199.511 258.154 203.402 254.263 203.402 249.463C203.402 244.664 199.511 240.773 194.711 240.773C189.912 240.773 186.021 244.664 186.021 249.463C186.021 254.263 189.912 258.154 194.711 258.154Z" fill="#FFB8B8"/>
<path d="M284.418 144.561C283.559 143.14 282.542 141.624 280.948 141.16C279.102 140.623 277.206 141.69 275.598 142.743C270.788 145.892 266.157 149.304 261.724 152.965L261.729 153.02C265.18 152.782 268.044 161.958 271.495 161.72C273.988 161.548 277.154 151.938 279.357 150.759C280.194 150.311 281.009 149.713 281.956 149.672C283.133 149.62 284.16 150.442 284.966 151.301C289.737 156.382 291.118 164.151 296.471 168.615C293.095 160.291 289.065 152.248 284.418 144.561Z" fill="#3F3D56"/>
<path d="M293.601 156.901C296.118 161.447 298.788 165.903 301.611 170.269V170.272C301.594 170.426 301.57 170.58 301.547 170.733C301.206 170.212 300.868 169.688 300.534 169.162C298 165.188 295.593 161.138 293.311 157.012C292.228 155.049 291.171 153.072 290.142 151.078C289.346 149.534 288.567 147.981 287.805 146.419C287.588 145.971 287.377 145.523 287.167 145.072C286.672 144.015 286.184 142.952 285.663 141.909C285.068 140.719 284.342 139.476 283.249 138.677C282.752 138.298 282.157 138.069 281.534 138.015C280.657 138.02 279.798 138.267 279.051 138.727C273.396 141.699 268.118 145.339 263.33 149.567C258.536 153.779 254.251 158.537 250.561 163.744C250.447 163.904 250.18 163.75 250.294 163.587C250.745 162.952 251.2 162.326 251.668 161.705C257.468 153.992 264.579 147.359 272.676 142.11C274.037 141.227 275.424 140.386 276.838 139.586C277.55 139.182 278.265 138.784 278.994 138.41C279.691 138.001 280.474 137.758 281.28 137.701C284.055 137.657 285.492 140.8 286.478 142.912C286.786 143.577 287.099 144.241 287.417 144.904C288.617 147.411 289.864 149.898 291.158 152.365C291.953 153.886 292.768 155.398 293.601 156.901Z" fill="#3F3D56"/>
<path d="M263.057 148.016C262.896 147.836 262.736 147.656 262.574 147.477C261.295 146.062 259.922 144.664 258.166 143.853C257.328 143.454 256.414 143.242 255.486 143.232C254.529 143.258 253.586 143.464 252.704 143.838C252.286 144.006 251.876 144.196 251.473 144.398C251.012 144.63 250.559 144.877 250.108 145.127C249.262 145.595 248.427 146.084 247.603 146.593C245.964 147.606 244.376 148.697 242.839 149.864C242.042 150.47 241.262 151.096 240.499 151.741C239.788 152.34 239.092 152.956 238.411 153.588C238.265 153.722 238.047 153.505 238.193 153.37C238.373 153.203 238.554 153.036 238.736 152.872C239.249 152.408 239.771 151.953 240.3 151.507C241.266 150.692 242.257 149.908 243.273 149.156C244.853 147.986 246.488 146.895 248.176 145.883C249.02 145.378 249.876 144.894 250.743 144.432C251.004 144.292 251.269 144.156 251.537 144.026C252.145 143.72 252.777 143.463 253.426 143.257C254.346 142.96 255.319 142.864 256.279 142.977C257.206 143.112 258.099 143.421 258.911 143.888C260.636 144.852 261.973 146.342 263.275 147.797C263.406 147.945 263.19 148.163 263.057 148.016Z" fill="#3F3D56"/>
<path d="M250.437 154.822C249.999 154.843 249.565 154.719 249.205 154.469C248.25 153.746 248.276 152.009 249.281 149.159C249.555 148.387 249.984 147.679 250.542 147.08C251.1 146.48 251.775 146.001 252.526 145.672C253.229 145.358 253.989 145.193 254.76 145.189C255.53 145.184 256.292 145.34 256.999 145.646C257.122 145.699 257.244 145.757 257.364 145.818C258.182 146.276 258.949 146.82 259.651 147.441C260.248 147.959 260.885 148.43 261.556 148.848L261.78 148.98L261.568 149.129C256.153 152.941 252.482 154.822 250.437 154.822Z" fill="#3F3D56"/>
<path d="M271.259 132.135C269.478 132.135 267.753 131.517 266.378 130.386C265.002 129.256 264.061 127.683 263.716 125.936C262.227 126.238 260.861 126.973 259.79 128.051C258.719 129.128 257.991 130.498 257.698 131.988C257.405 133.479 257.56 135.023 258.144 136.425C258.727 137.827 259.713 139.026 260.977 139.868C262.24 140.711 263.726 141.161 265.245 141.16C266.763 141.16 268.248 140.709 269.512 139.866C270.775 139.022 271.76 137.823 272.342 136.42C272.925 135.018 273.079 133.474 272.785 131.983C272.283 132.085 271.771 132.135 271.259 132.135Z" fill="#3F3D56"/>
<path opacity="0.74" d="M65.4576 144.503C71.7939 144.503 76.9305 139.367 76.9305 133.03C76.9305 126.694 71.7939 121.557 65.4576 121.557C59.1212 121.557 53.9846 126.694 53.9846 133.03C53.9846 139.367 59.1212 144.503 65.4576 144.503Z" fill="#3F3D56"/>
<path opacity="0.74" d="M76.9306 144.503C83.2669 144.503 88.4035 139.367 88.4035 133.03C88.4035 126.694 83.2669 121.557 76.9306 121.557C70.5943 121.557 65.4576 126.694 65.4576 133.03C65.4576 139.367 70.5943 144.503 76.9306 144.503Z" fill="#15A3B7"/>
<path opacity="0.74" d="M71.2912 135.359C77.6275 135.359 82.7641 130.223 82.7641 123.887C82.7641 117.55 77.6275 112.414 71.2912 112.414C64.9548 112.414 59.8182 117.55 59.8182 123.887C59.8182 130.223 64.9548 135.359 71.2912 135.359Z" fill="#FF6584"/>
<path d="M101.291 120.599L71.822 129.857L72.0224 130.495L101.492 121.237L101.291 120.599Z" fill="#3F3D56"/>
<path d="M101.479 122.148C102.218 122.148 102.816 121.549 102.816 120.811C102.816 120.072 102.218 119.474 101.479 119.474C100.741 119.474 100.142 120.072 100.142 120.811C100.142 121.549 100.741 122.148 101.479 122.148Z" fill="#3F3D56"/>
<path d="M292.792 180.975C294.751 182.356 296.633 183.763 298.786 184.826C298.746 184.99 298.702 185.157 298.662 185.321C298.398 185.197 298.141 185.067 297.883 184.933C295.701 183.79 293.822 182.235 291.773 180.885C290.757 180.183 289.648 179.627 288.477 179.234C287.257 178.867 285.982 178.718 284.71 178.793C279.405 179.053 274.859 182.219 269.929 183.813C267.515 184.595 264.948 185.013 262.431 184.522C259.914 184.03 257.678 182.693 255.455 181.483C253.262 180.287 250.872 179.083 248.311 179.083C246.226 179.087 244.033 179.922 242.916 181.768C242.882 181.823 242.827 181.862 242.764 181.877C242.7 181.893 242.633 181.883 242.577 181.85C242.521 181.817 242.48 181.763 242.463 181.7C242.446 181.638 242.454 181.571 242.485 181.513C242.735 181.093 243.042 180.709 243.398 180.374C244.855 178.993 246.998 178.448 248.967 178.609C251.514 178.816 253.837 180.019 256.04 181.229C258.376 182.513 260.77 183.893 263.47 184.174C266.138 184.455 268.779 183.756 271.252 182.817C276.042 180.995 280.769 177.96 286.097 178.298C288.611 178.458 290.763 179.548 292.792 180.975Z" fill="#3F3D56"/>
<path d="M83.1262 84.3016V84.9802C82.9016 84.9358 82.6732 84.9134 82.4443 84.9133H78.9478V92.421C78.9472 93.5325 78.5053 94.5983 77.7194 95.3843C76.9334 96.1702 75.8676 96.612 74.7561 96.6127H69.5883V97.7693C69.5883 98.2329 69.6803 98.6919 69.8591 99.1197H69.1437C68.9942 98.6852 68.9185 98.2288 68.9198 97.7693V96.6127H66.0785V95.9441H68.9198V88.4365C68.9204 87.325 69.3622 86.2592 70.1482 85.4732C70.9342 84.6872 72 84.2454 73.1115 84.2448H78.2793V83.0748H78.9478V84.2448H82.4443C82.6727 84.245 82.9008 84.264 83.1262 84.3016Z" fill="#15A3B7"/>
<path d="M74.7561 78.8965H65.4233C64.3118 78.8971 63.246 79.339 62.46 80.1249C61.674 80.9109 61.2322 81.9767 61.2316 83.0882V92.421C61.2322 93.5325 61.674 94.5983 62.46 95.3843C63.246 96.1702 64.3118 96.6121 65.4233 96.6127H74.7561C75.8676 96.6121 76.9334 96.1702 77.7193 95.3843C78.5053 94.5983 78.9471 93.5325 78.9478 92.421V83.0749C78.9438 81.9656 78.5005 80.9031 77.7148 80.12C76.9292 79.3369 75.8653 78.8969 74.7561 78.8965ZM78.2792 92.421C78.278 93.355 77.9064 94.2504 77.2459 94.9109C76.5855 95.5713 75.6901 95.9429 74.7561 95.9442H65.4233C64.4893 95.9429 63.5939 95.5713 62.9334 94.9109C62.273 94.2504 61.9014 93.355 61.9001 92.421V83.0882C61.9014 82.1542 62.273 81.2588 62.9334 80.5983C63.5939 79.9379 64.4893 79.5663 65.4233 79.565H74.7561C75.6878 79.5661 76.5813 79.9358 77.2414 80.5934C77.9015 81.251 78.2746 82.1431 78.2792 83.0748V92.421Z" fill="#3F3D56"/>
<path d="M68.9198 95.9442V96.6127H69.5884V95.9442H68.9198ZM68.9198 95.9442V96.6127H69.5884V95.9442H68.9198ZM83.1262 84.3016C82.9009 84.264 82.6728 84.245 82.4443 84.2448H73.1115C72 84.2454 70.9342 84.6873 70.1483 85.4732C69.3623 86.2592 68.9205 87.325 68.9198 88.4365V97.7693C68.9186 98.2288 68.9943 98.6852 69.1438 99.1197C69.4259 99.9481 69.9602 100.667 70.6717 101.177C71.3833 101.687 72.2364 101.961 73.1115 101.961H82.4443C83.5558 101.96 84.6216 101.519 85.4076 100.733C86.1936 99.9466 86.6354 98.8808 86.636 97.7693V88.4365C86.6358 87.4432 86.2828 86.4822 85.64 85.7249C84.9971 84.9676 84.1063 84.4632 83.1262 84.3016ZM85.9675 97.7693C85.9662 98.7033 85.5946 99.5987 84.9342 100.259C84.2737 100.92 83.3783 101.291 82.4443 101.292H73.1115C72.1775 101.291 71.2822 100.92 70.6217 100.259C69.9613 99.5986 69.5897 98.7033 69.5884 97.7693V88.4365C69.5896 87.5025 69.9612 86.6071 70.6217 85.9466C71.2821 85.2862 72.1775 84.9146 73.1115 84.9133H82.4443C83.3786 84.9137 84.2745 85.285 84.9352 85.9456C85.5958 86.6063 85.9671 87.5022 85.9675 88.4365V97.7693ZM68.9198 95.9442V96.6127H69.5884V95.9442H68.9198Z" fill="#3F3D56"/>
<path d="M62.318 183.085H22.6738C22.3978 183.085 22.1331 183.194 21.9377 183.389C21.7422 183.584 21.6319 183.848 21.6309 184.124V186.474C22.9388 191.484 24.5223 196.417 26.3741 201.252H62.318C62.4545 201.252 62.5898 201.225 62.716 201.173C62.8421 201.121 62.9568 201.044 63.0534 200.948C63.1499 200.851 63.2265 200.737 63.2787 200.61C63.3309 200.484 63.3577 200.349 63.3575 200.212V184.124C63.3572 183.848 63.2476 183.584 63.0527 183.389C62.8578 183.194 62.5936 183.085 62.318 183.085Z" fill="#15A3B7"/>
<path d="M58.5407 206.47H28.49C28.8477 207.309 29.212 208.141 29.5897 208.97H58.5407C60.1719 208.994 60.1552 206.447 58.5407 206.47Z" fill="#E4E4E4"/>
<path d="M58.5408 212.199H31.0974C31.4985 213.038 31.9108 213.872 32.3342 214.7H58.5408C60.172 214.723 60.1553 212.179 58.5408 212.199Z" fill="#E4E4E4"/>
<path d="M58.5408 217.932H34.0222C34.4701 218.771 34.9314 219.603 35.3994 220.432H58.5408C60.172 220.456 60.1553 217.909 58.5408 217.932Z" fill="#E4E4E4"/>
<path d="M264.066 63.846H263.876C264.468 63.8465 265.053 63.9848 265.583 64.2499H264.717C263.783 64.251 262.887 64.6225 262.227 65.2829C261.566 65.9434 261.195 66.8389 261.194 67.7729V77.106C261.195 78.04 261.566 78.9355 262.227 79.596C262.887 80.2565 263.783 80.628 264.717 80.629H265.269C264.825 80.8032 264.353 80.893 263.876 80.8936H264.066C265.089 80.8925 266.069 80.4857 266.792 79.7626C267.515 79.0394 267.922 78.059 267.923 77.0363V67.7033C267.922 66.6806 267.515 65.7002 266.792 64.9771C266.069 64.2539 265.089 63.8472 264.066 63.846Z" fill="#3F3D56"/>
<path opacity="0.21" d="M264.066 63.846H263.876C264.468 63.8465 265.053 63.9848 265.583 64.2499H264.717C263.783 64.251 262.887 64.6225 262.227 65.2829C261.566 65.9434 261.195 66.8389 261.194 67.7729V77.106C261.195 78.04 261.566 78.9355 262.227 79.596C262.887 80.2565 263.783 80.628 264.717 80.629H265.269C264.825 80.8032 264.353 80.893 263.876 80.8936H264.066C265.089 80.8925 266.069 80.4857 266.792 79.7626C267.515 79.0394 267.922 78.059 267.923 77.0363V67.7033C267.922 66.6806 267.515 65.7002 266.792 64.9771C266.069 64.2539 265.089 63.8472 264.066 63.846Z" fill="black"/>
<path d="M239.33 63.846H239.14C239.733 63.8465 240.317 63.9848 240.848 64.2499H239.981C239.047 64.251 238.151 64.6225 237.491 65.2829C236.83 65.9434 236.459 66.8389 236.458 67.7729V77.106C236.459 78.04 236.83 78.9355 237.491 79.596C238.151 80.2565 239.047 80.628 239.981 80.629H240.533C240.089 80.8032 239.617 80.893 239.14 80.8936H239.33C240.353 80.8925 241.333 80.4857 242.056 79.7626C242.78 79.0394 243.186 78.059 243.188 77.0363V67.7033C243.186 66.6806 242.78 65.7002 242.056 64.9771C241.333 64.2539 240.353 63.8472 239.33 63.846Z" fill="#15A3B7"/>
<path opacity="0.21" d="M239.33 63.846H239.14C239.733 63.8465 240.317 63.9848 240.848 64.2499H239.981C239.047 64.251 238.151 64.6225 237.491 65.2829C236.83 65.9434 236.459 66.8389 236.458 67.7729V77.106C236.459 78.04 236.83 78.9355 237.491 79.596C238.151 80.2565 239.047 80.628 239.981 80.629H240.533C240.089 80.8032 239.617 80.893 239.14 80.8936H239.33C240.353 80.8925 241.333 80.4857 242.056 79.7626C242.78 79.0394 243.186 78.059 243.188 77.0363V67.7033C243.186 66.6806 242.78 65.7002 242.056 64.9771C241.333 64.2539 240.353 63.8472 239.33 63.846Z" fill="black"/>
<path d="M240.018 80.6581C239.084 80.657 238.189 80.2855 237.528 79.625C236.868 78.9646 236.496 78.0691 236.495 77.1351V67.802C236.496 66.8679 236.868 65.9725 237.528 65.312C238.189 64.6515 239.084 64.28 240.018 64.2789H240.885C240.355 64.0138 239.77 63.8756 239.177 63.875H229.844C228.821 63.8762 227.841 64.283 227.118 65.0061C226.395 65.7292 225.988 66.7097 225.987 67.7323V77.0654C225.988 78.0881 226.395 79.0685 227.118 79.7916C227.841 80.5148 228.821 80.9215 229.844 80.9227H239.177C239.654 80.922 240.127 80.8323 240.571 80.6581L240.018 80.6581Z" fill="#15A3B7"/>
<path d="M264.754 80.6581C263.82 80.657 262.924 80.2855 262.264 79.625C261.603 78.9646 261.232 78.0691 261.231 77.1351V67.802C261.232 66.8679 261.603 65.9725 262.264 65.312C262.924 64.6515 263.82 64.28 264.754 64.2789H265.621C265.09 64.0138 264.506 63.8756 263.913 63.875H254.58C253.557 63.8762 252.577 64.283 251.854 65.0061C251.13 65.7292 250.724 66.7097 250.723 67.7323V77.0654C250.724 78.0881 251.13 79.0685 251.854 79.7916C252.577 80.5148 253.557 80.9215 254.58 80.9227H263.913C264.39 80.922 264.863 80.8323 265.307 80.6581L264.754 80.6581Z" fill="#3F3D56"/>
<path d="M275.775 66.1977C279.2 70.9098 282.333 75.8272 285.158 80.9222H279.315C278.292 80.9207 277.312 80.5138 276.589 79.7907C275.866 79.0676 275.459 78.0873 275.457 77.0647V67.7319C275.457 67.2042 275.565 66.6819 275.775 66.1977Z" fill="#FF6584"/>
<path d="M264.059 85.8192L260.79 80.9222L258.4 77.3421C258.26 77.133 258.064 76.9677 257.835 76.8654C257.605 76.763 257.351 76.7278 257.103 76.7639C256.854 76.7999 256.62 76.9057 256.429 77.069C256.238 77.2323 256.097 77.4464 256.023 77.6864L255.017 80.9222L252.991 87.4237C252.911 87.6827 252.912 87.96 252.994 88.2185C253.075 88.477 253.234 88.7044 253.448 88.8704C253.663 89.0364 253.922 89.1331 254.193 89.1475C254.464 89.162 254.733 89.0935 254.963 88.9513L255.682 88.5067C255.827 88.4175 255.992 88.3667 256.161 88.3592C256.331 88.3517 256.5 88.3876 256.652 88.4636C256.804 88.5396 256.934 88.6531 257.03 88.7935C257.126 88.9338 257.184 89.0963 257.2 89.2655L257.858 96.4523C257.889 96.7823 258.042 97.0891 258.286 97.3128C258.531 97.5365 258.85 97.6611 259.182 97.6623C259.222 97.6623 259.262 97.659 259.305 97.6556L260.315 97.5654C260.489 97.5496 260.658 97.4996 260.813 97.4182C260.968 97.3369 261.105 97.2258 261.217 97.0914C261.329 96.9569 261.413 96.8017 261.465 96.6347C261.516 96.4677 261.535 96.2921 261.518 96.118L260.84 88.6972C260.824 88.5229 260.854 88.3474 260.927 88.1884C261 88.0295 261.114 87.8926 261.257 87.7916C261.4 87.6906 261.567 87.6291 261.742 87.6132C261.916 87.5973 262.091 87.6276 262.25 87.7011L262.397 87.768C262.661 87.8892 262.957 87.9211 263.24 87.8588C263.523 87.7964 263.778 87.6433 263.966 87.4227C264.154 87.202 264.265 86.926 264.282 86.6365C264.299 86.347 264.22 86.06 264.059 85.8192Z" fill="#CCCCCC"/>
</g>
<defs>
<clipPath id="clip0_5_3632">
<rect width="301.677" height="293.192" fill="white"/>
</clipPath>
</defs>
</svg>
