<svg width="343" height="216" viewBox="0 0 343 216" fill="none" xmlns="http://www.w3.org/2000/svg">
<g clip-path="url(#clip0_5_3350)">
<path d="M84.5667 7.18779C86.509 7.18779 88.0835 5.57874 88.0835 3.59389C88.0835 1.60904 86.509 0 84.5667 0C82.6244 0 81.0498 1.60904 81.0498 3.59389C81.0498 5.57874 82.6244 7.18779 84.5667 7.18779Z" fill="#3F3D56"/>
<path d="M96.7158 7.18779C98.6581 7.18779 100.233 5.57874 100.233 3.59389C100.233 1.60904 98.6581 0 96.7158 0C94.7735 0 93.1989 1.60904 93.1989 3.59389C93.1989 5.57874 94.7735 7.18779 96.7158 7.18779Z" fill="#3F3D56"/>
<path d="M108.865 7.18779C110.807 7.18779 112.382 5.57874 112.382 3.59389C112.382 1.60904 110.807 0 108.865 0C106.923 0 105.348 1.60904 105.348 3.59389C105.348 5.57874 106.923 7.18779 108.865 7.18779Z" fill="#3F3D56"/>
<path d="M122.718 6.43441C122.61 6.43441 122.502 6.39259 122.421 6.30937L120.048 3.88449C119.89 3.72292 119.89 3.46471 120.048 3.30314L122.421 0.878467C122.582 0.714454 122.845 0.711814 123.009 0.871973C123.173 1.03254 123.176 1.29581 123.015 1.45982L120.927 3.59381L123.015 5.72801C123.176 5.89202 123.173 6.1553 123.009 6.31586C122.928 6.39502 122.823 6.43441 122.718 6.43441Z" fill="#3F3D56"/>
<path d="M126.706 6.4344C126.601 6.4344 126.496 6.39502 126.415 6.31586C126.25 6.1553 126.248 5.89223 126.408 5.72801L128.497 3.59381L126.408 1.45982C126.248 1.29581 126.25 1.03253 126.415 0.871973C126.579 0.711207 126.842 0.714254 127.003 0.878466L129.376 3.30314C129.534 3.46471 129.534 3.72291 129.376 3.88449L127.003 6.30937C126.921 6.39259 126.814 6.4344 126.706 6.4344Z" fill="#3F3D56"/>
<path d="M250.846 0.416077H246.434C245.931 0.416077 245.523 0.82347 245.523 1.32649V5.7414C245.523 6.24442 245.931 6.65181 246.434 6.65181H250.846C251.35 6.65181 251.761 6.24442 251.761 5.7414V1.32649C251.761 0.82347 251.35 0.416077 250.846 0.416077Z" fill="#3F3D56"/>
<path d="M240.034 0.416077H235.621C235.118 0.416077 234.711 0.82347 234.711 1.32649V5.7414C234.711 6.24442 235.118 6.65181 235.621 6.65181H240.034C240.537 6.65181 240.949 6.24442 240.949 5.7414V1.32649C240.949 0.82347 240.537 0.416077 240.034 0.416077Z" fill="#3F3D56"/>
<path d="M261.035 0.623962H256.623C256.12 0.623962 255.712 1.03136 255.712 1.53438V5.94928C255.712 6.45231 256.12 6.8597 256.623 6.8597H261.035C261.538 6.8597 261.95 6.45231 261.95 5.94928V1.53438C261.95 1.03136 261.538 0.623962 261.035 0.623962Z" fill="#3F3D56"/>
<path d="M194.529 2.30344H159.259C158.643 2.30344 158.149 2.8023 158.149 3.41341C158.149 4.02453 158.643 4.52337 159.259 4.52337H194.529C195.14 4.52337 195.639 4.0245 195.639 3.41341C195.639 2.80232 195.14 2.30344 194.529 2.30344Z" fill="#3F3D56"/>
<path d="M268.25 17.4182H74.7496C74.3347 17.4093 74.0055 17.0659 74.0143 16.6511C74.0229 16.2488 74.3471 15.9247 74.7496 15.9161H268.25C268.665 15.925 268.995 16.2684 268.986 16.6832C268.977 17.0855 268.653 17.4096 268.25 17.4182Z" fill="#CACACA"/>
<path d="M237.066 28.0328H222.75C221.675 28.0328 220.803 28.9041 220.803 29.979V29.979C220.803 31.0539 221.675 31.9253 222.75 31.9253H237.066C238.141 31.9253 239.013 31.0539 239.013 29.979C239.013 28.9041 238.141 28.0328 237.066 28.0328Z" fill="#15A3B7"/>
<path d="M213.502 35.8178H246.314C247.389 35.8178 248.261 36.6892 248.261 37.764C248.261 38.8389 247.389 39.7103 246.314 39.7103H213.502C212.427 39.7103 211.555 38.8389 211.555 37.764C211.555 36.6892 212.427 35.8178 213.502 35.8178Z" fill="#E6E6E6"/>
<path d="M246.314 43.6028H213.502C212.427 43.6028 211.555 44.4741 211.555 45.549V45.549C211.555 46.6239 212.427 47.4953 213.502 47.4953H246.314C247.389 47.4953 248.261 46.6239 248.261 45.549C248.261 44.4741 247.389 43.6028 246.314 43.6028Z" fill="#E6E6E6"/>
<path d="M80.6333 133.651H71.5959C71.353 133.651 70.0152 132.944 70.0152 132.071V127.053C69.972 123.257 82.4034 123.008 82.4503 127.053V132.071C82.4503 132.944 81.5063 133.651 80.6333 133.651Z" fill="#E6E6E6"/>
<path d="M81.101 123.651C80.6626 123.494 80.197 123.428 79.7322 123.455C79.8565 123.414 79.9708 123.347 80.0674 123.259C79.9824 123.255 79.898 123.244 79.8151 123.225C79.7239 123.208 79.6379 123.169 79.5643 123.112C79.4903 123.054 79.4507 122.962 79.4591 122.869C79.476 122.754 79.5833 122.659 79.5723 122.544C79.5597 122.412 79.4069 122.347 79.3251 122.242C79.2227 122.08 79.2403 121.869 79.3683 121.726C79.446 121.636 79.5411 121.562 79.6479 121.509C79.4675 121.463 79.2779 121.465 79.099 121.517C79.2908 121.368 79.376 121.12 79.3158 120.885C79.2145 120.593 78.974 120.37 78.6746 120.291C78.3793 120.217 78.0736 120.192 77.7701 120.218C78.028 120.139 77.9892 119.735 77.792 119.551C77.5948 119.367 77.3128 119.29 77.1269 119.095C76.9409 118.899 76.956 118.482 77.2239 118.449L77.1909 118.354C76.6574 118.155 76.0634 118.426 75.8641 118.959C75.8471 119.005 75.8333 119.051 75.8229 119.099C75.7738 119.405 75.8652 119.743 75.7118 120.012C75.5162 120.355 75.0414 120.393 74.6483 120.355C74.2625 120.256 73.8532 120.312 73.5079 120.511C73.2225 120.749 73.1838 121.173 73.4216 121.458C73.5536 121.616 73.7509 121.706 73.957 121.7C73.6984 121.702 73.441 121.736 73.1908 121.801L73.4318 121.894C73.4854 121.911 73.5349 121.939 73.5769 121.976C73.6192 122.015 73.6322 122.076 73.6093 122.129C73.5708 122.199 73.4712 122.196 73.3924 122.184L72.8684 122.106C72.9726 122.14 73.0289 122.253 72.9941 122.357C72.9594 122.461 72.8467 122.518 72.7425 122.483C72.7158 122.474 72.6912 122.46 72.6705 122.44C72.7243 122.503 72.7676 122.574 72.7987 122.651C72.8294 122.729 72.8204 122.817 72.7743 122.888C72.6678 122.985 72.511 123.004 72.3842 122.935C72.3415 122.919 72.2986 122.9 72.2554 122.882C72.2562 122.897 72.2574 122.913 72.2592 122.928C72.2881 123.129 72.4003 123.309 72.5683 123.423C72.3308 123.451 72.112 123.566 71.9548 123.746C71.6822 124.085 71.6657 124.563 71.9145 124.919C71.6502 124.802 71.3605 124.754 71.0726 124.78C70.7767 124.816 70.5549 125.068 70.5567 125.366C70.6044 125.732 71.0567 125.865 71.4222 125.91C74.2965 126.264 77.2034 126.264 80.0776 125.909C80.468 125.883 80.8505 125.786 81.2061 125.622C81.5658 125.452 81.8134 125.11 81.8621 124.715C81.8466 124.239 81.5464 123.819 81.101 123.651Z" fill="#15A3B7"/>
<path d="M83.2345 127.88C83.169 127.596 82.9153 127.396 82.6236 127.397C82.3458 127.404 82.0975 127.602 81.8247 127.559C81.5982 127.523 81.4203 127.325 81.1925 127.356C80.9838 127.383 80.8717 127.587 80.7159 127.697H80.3162C80.1607 127.574 80.0842 127.326 79.8684 127.257C79.5434 127.152 79.2826 127.519 78.9422 127.583C78.7452 127.605 78.5461 127.567 78.371 127.474C78.1995 127.381 78.0134 127.318 77.8207 127.288C77.6476 127.262 77.475 127.338 77.3771 127.483C77.3876 127.379 77.2528 127.277 77.1158 127.271C76.9628 127.276 76.814 127.322 76.6844 127.404C76.5543 127.485 76.4038 127.528 76.2503 127.528C75.9103 127.498 75.7435 127.101 75.4015 127.097C74.9711 127.091 74.7989 127.704 74.3733 127.652C74.1519 127.625 74.0325 127.424 73.8351 127.338C73.6257 127.274 73.4021 127.271 73.1915 127.332L72.1848 127.52C71.8897 127.601 71.5785 127.604 71.2818 127.529C71.0659 127.451 70.8562 127.282 70.6335 127.346C70.4396 127.402 70.3449 127.619 70.1396 127.63C70.0084 127.614 69.8819 127.571 69.7681 127.503C69.5504 127.426 69.3078 127.488 69.1527 127.659C69.04 128.118 69.0217 128.595 69.099 129.061C69.096 129.16 69.1038 129.26 69.1225 129.357L70.135 133.408C70.2541 134.029 70.5614 134.478 71.1941 134.478H81.0353C81.668 134.478 82.2116 134.029 82.3306 133.408L83.3431 129.357C83.3451 129.347 83.3464 129.336 83.3482 129.326C83.3721 128.841 83.3339 128.355 83.2345 127.88Z" fill="#CCCCCC"/>
<path opacity="0.2" d="M71.2022 127.576L71.3989 130.132C71.4645 130.984 71.3674 131.825 71.433 132.677C71.4699 133.157 71.6696 133.649 71.7065 134.129C71.7108 134.185 71.7995 134.186 71.7951 134.129L71.5983 131.572L71.4016 129.016L71.2908 127.576C71.2864 127.519 71.1978 127.519 71.2022 127.576Z" fill="black"/>
<path opacity="0.2" d="M72.9112 127.677L72.9879 130.196L73.0645 132.716L73.1076 134.13C73.1093 134.187 73.1979 134.187 73.1962 134.13L73.1195 131.611L73.0429 129.091L72.9998 127.677C72.9981 127.62 72.9095 127.62 72.9112 127.677Z" fill="black"/>
<path opacity="0.2" d="M74.567 127.828L74.5436 130.263L74.5205 132.683L74.5073 134.055C74.5082 134.08 74.5287 134.099 74.5531 134.098C74.5764 134.097 74.5951 134.078 74.5959 134.055L74.6192 131.62L74.6424 129.2L74.6556 127.828C74.6547 127.803 74.6342 127.784 74.6097 127.785C74.5864 127.786 74.5678 127.805 74.567 127.828Z" fill="black"/>
<path opacity="0.2" d="M75.8178 127.753L75.8663 130.218L75.9145 132.668L75.9418 134.056C75.9426 134.08 75.9631 134.099 75.9876 134.099C76.0109 134.098 76.0296 134.079 76.0304 134.056L75.9819 131.591L75.9337 129.141L75.9064 127.753C75.9056 127.729 75.885 127.71 75.8606 127.711C75.8373 127.712 75.8186 127.73 75.8178 127.753Z" fill="black"/>
<path opacity="0.2" d="M77.6407 127.652L77.6961 130.183L77.7516 132.713L77.7826 134.13C77.7835 134.154 77.804 134.174 77.8285 134.173C77.8517 134.172 77.8704 134.153 77.8712 134.13L77.8158 131.599L77.7604 129.069L77.7293 127.652C77.7283 127.628 77.7076 127.609 77.6831 127.61C77.6601 127.611 77.6417 127.629 77.6407 127.652Z" fill="black"/>
<path opacity="0.2" d="M79.1539 127.729L79.3472 130.279L79.5399 132.821L79.6485 134.254C79.6528 134.311 79.7414 134.311 79.7371 134.254L79.5438 131.704L79.3511 129.162L79.2425 127.729C79.2383 127.673 79.1496 127.672 79.1539 127.729Z" fill="black"/>
<path opacity="0.2" d="M80.8354 128.026L80.952 130.359C80.9908 131.137 80.7934 131.914 80.8322 132.692L80.8976 134.002C80.9005 134.059 80.9891 134.059 80.9863 134.002C80.9474 133.225 81.1449 132.447 81.106 131.669L80.9895 129.336L80.9241 128.026C80.9212 127.969 80.8326 127.969 80.8354 128.026Z" fill="black"/>
<path d="M75.7011 121.634C75.8887 121.634 76.0408 121.529 76.0408 121.398C76.0408 121.268 75.8887 121.162 75.7011 121.162C75.5135 121.162 75.3614 121.268 75.3614 121.398C75.3614 121.529 75.5135 121.634 75.7011 121.634Z" fill="#E6E6E6"/>
<path d="M77.8573 122.166C78.0449 122.166 78.197 122.06 78.197 121.93C78.197 121.799 78.0449 121.693 77.8573 121.693C77.6697 121.693 77.5176 121.799 77.5176 121.93C77.5176 122.06 77.6697 122.166 77.8573 122.166Z" fill="#3F3D56"/>
<path d="M74.8445 123.317C75.0321 123.317 75.1842 123.212 75.1842 123.081C75.1842 122.951 75.0321 122.845 74.8445 122.845C74.6569 122.845 74.5049 122.951 74.5049 123.081C74.5049 123.212 74.6569 123.317 74.8445 123.317Z" fill="#FF6584"/>
<path d="M77.6534 123.629C77.772 123.629 77.8681 123.562 77.8681 123.479C77.8681 123.397 77.772 123.33 77.6534 123.33C77.5348 123.33 77.4387 123.397 77.4387 123.479C77.4387 123.562 77.5348 123.629 77.6534 123.629Z" fill="#E6E6E6"/>
<path d="M79.0161 123.964C79.1347 123.964 79.2308 123.898 79.2308 123.815C79.2308 123.733 79.1347 123.666 79.0161 123.666C78.8976 123.666 78.8015 123.733 78.8015 123.815C78.8015 123.898 78.8976 123.964 79.0161 123.964Z" fill="#3F3D56"/>
<path d="M77.1121 124.692C77.2306 124.692 77.3267 124.625 77.3267 124.543C77.3267 124.461 77.2306 124.394 77.1121 124.394C76.9935 124.394 76.8974 124.461 76.8974 124.543C76.8974 124.625 76.9935 124.692 77.1121 124.692Z" fill="#FF6584"/>
<path d="M79.6619 124.455C79.7805 124.455 79.8766 124.388 79.8766 124.306C79.8766 124.224 79.7805 124.157 79.6619 124.157C79.5434 124.157 79.4473 124.224 79.4473 124.306C79.4473 124.388 79.5434 124.455 79.6619 124.455Z" fill="#E6E6E6"/>
<path d="M81.0246 124.791C81.1432 124.791 81.2393 124.724 81.2393 124.642C81.2393 124.56 81.1432 124.493 81.0246 124.493C80.9061 124.493 80.81 124.56 80.81 124.642C80.81 124.724 80.9061 124.791 81.0246 124.791Z" fill="#3F3D56"/>
<path d="M79.1206 125.519C79.2391 125.519 79.3352 125.452 79.3352 125.37C79.3352 125.287 79.2391 125.22 79.1206 125.22C79.002 125.22 78.9059 125.287 78.9059 125.37C78.9059 125.452 79.002 125.519 79.1206 125.519Z" fill="#FF6584"/>
<path d="M74.1283 123.668C74.1445 123.55 74.0913 123.446 74.0096 123.435C73.9279 123.424 73.8486 123.51 73.8324 123.627C73.8162 123.745 73.8693 123.849 73.951 123.86C74.0327 123.871 74.1121 123.785 74.1283 123.668Z" fill="#E6E6E6"/>
<path d="M73.6094 124.971C73.6256 124.854 73.5725 124.75 73.4907 124.739C73.409 124.727 73.3297 124.813 73.3135 124.931C73.2973 125.048 73.3504 125.152 73.4321 125.164C73.5138 125.175 73.5932 125.089 73.6094 124.971Z" fill="#3F3D56"/>
<path d="M73.1481 122.987C73.1643 122.869 73.1111 122.765 73.0294 122.754C72.9477 122.742 72.8684 122.828 72.8522 122.946C72.836 123.063 72.8891 123.168 72.9708 123.179C73.0525 123.19 73.1319 123.104 73.1481 122.987Z" fill="#FF6584"/>
<path d="M76.4617 122.959C76.4779 122.842 76.4248 122.738 76.343 122.726C76.2613 122.715 76.182 122.801 76.1658 122.919C76.1496 123.036 76.2027 123.14 76.2844 123.151C76.3662 123.163 76.4455 123.077 76.4617 122.959Z" fill="#E6E6E6"/>
<path d="M75.9428 124.263C75.959 124.145 75.9059 124.041 75.8242 124.03C75.7425 124.019 75.6631 124.105 75.6469 124.222C75.6308 124.34 75.6839 124.444 75.7656 124.455C75.8473 124.466 75.9266 124.38 75.9428 124.263Z" fill="#3F3D56"/>
<path d="M75.4815 122.278C75.4977 122.161 75.4446 122.056 75.3629 122.045C75.2812 122.034 75.2018 122.12 75.1856 122.237C75.1695 122.355 75.2226 122.459 75.3043 122.47C75.386 122.481 75.4653 122.395 75.4815 122.278Z" fill="#FF6584"/>
<path d="M77.094 121.516C77.1102 121.399 77.0571 121.295 76.9754 121.283C76.8937 121.272 76.8143 121.358 76.7981 121.476C76.7819 121.593 76.8351 121.697 76.9168 121.709C76.9985 121.72 77.0778 121.634 77.094 121.516Z" fill="#3F3D56"/>
<path d="M76.6334 119.532C76.6496 119.415 76.5965 119.31 76.5148 119.299C76.4331 119.288 76.3537 119.374 76.3376 119.491C76.3214 119.609 76.3745 119.713 76.4562 119.724C76.5379 119.736 76.6173 119.649 76.6334 119.532Z" fill="#FF6584"/>
<path d="M159.291 96.2326C161.027 96.2326 162.434 95.2542 162.434 94.0473C162.434 92.8404 161.027 91.8619 159.291 91.8619C157.556 91.8619 156.149 92.8404 156.149 94.0473C156.149 95.2542 157.556 96.2326 159.291 96.2326Z" fill="#E6E6E6"/>
<path d="M179.24 101.15C180.975 101.15 182.382 100.171 182.382 98.9643C182.382 97.7574 180.975 96.779 179.24 96.779C177.504 96.779 176.097 97.7574 176.097 98.9643C176.097 100.171 177.504 101.15 179.24 101.15Z" fill="#3F3D56"/>
<path d="M151.366 111.803C153.102 111.803 154.509 110.825 154.509 109.618C154.509 108.411 153.102 107.432 151.366 107.432C149.631 107.432 148.224 108.411 148.224 109.618C148.224 110.825 149.631 111.803 151.366 111.803Z" fill="#FF6584"/>
<path d="M195.935 122.332C197.032 122.332 197.921 121.714 197.921 120.951C197.921 120.188 197.032 119.57 195.935 119.57C194.838 119.57 193.949 120.188 193.949 120.951C193.949 121.714 194.838 122.332 195.935 122.332Z" fill="#E6E6E6"/>
<path d="M208.543 125.44C209.64 125.44 210.529 124.821 210.529 124.058C210.529 123.296 209.64 122.677 208.543 122.677C207.446 122.677 206.557 123.296 206.557 124.058C206.557 124.821 207.446 125.44 208.543 125.44Z" fill="#3F3D56"/>
<path d="M144.739 115.046C144.888 113.96 144.397 112.995 143.641 112.891C142.885 112.787 142.151 113.583 142.001 114.669C141.852 115.756 142.343 116.721 143.099 116.825C143.855 116.929 144.589 116.133 144.739 115.046Z" fill="#E6E6E6"/>
<path d="M139.939 127.108C140.089 126.021 139.598 125.056 138.842 124.952C138.086 124.848 137.352 125.644 137.202 126.731C137.052 127.817 137.544 128.782 138.299 128.886C139.055 128.99 139.79 128.194 139.939 127.108Z" fill="#3F3D56"/>
<path d="M135.671 108.744C135.821 107.658 135.33 106.693 134.574 106.589C133.818 106.485 133.084 107.281 132.934 108.367C132.784 109.453 133.276 110.418 134.031 110.522C134.787 110.626 135.522 109.83 135.671 108.744Z" fill="#FF6584"/>
<path d="M166.328 108.491C166.478 107.405 165.986 106.44 165.23 106.336C164.474 106.231 163.74 107.028 163.59 108.114C163.441 109.2 163.932 110.165 164.688 110.269C165.444 110.373 166.178 109.577 166.328 108.491Z" fill="#E6E6E6"/>
<path d="M157.259 102.188C157.409 101.102 156.918 100.137 156.162 100.033C155.406 99.9286 154.672 100.725 154.522 101.811C154.372 102.897 154.864 103.862 155.62 103.966C156.376 104.07 157.11 103.274 157.259 102.188Z" fill="#FF6584"/>
<path d="M241.193 208.063C241.738 208.088 242.2 207.666 242.225 207.122C242.238 206.831 242.123 206.549 241.909 206.352C241.884 206.253 241.866 206.182 241.841 206.083C242.378 204.72 243.918 204.05 245.281 204.587C245.95 204.85 246.483 205.373 246.759 206.037C247.929 208.775 249.444 211.609 248.691 214.625C253.666 204.085 251.974 190.974 244.621 181.96C242.523 180.845 241.021 178.864 240.513 176.544C241.519 176.884 242.773 176.066 242.017 175.007C241.689 174.603 241.358 174.201 241.03 173.796C244.851 169.729 249.403 176.121 245.198 181.611C246.573 183.336 247.765 185.199 248.753 187.171C248.525 185.077 248.797 182.959 249.548 180.991C250.309 179.156 251.734 177.611 252.99 176.026C253.918 174.836 255.635 174.624 256.825 175.552C257.414 176.012 257.79 176.693 257.863 177.437C256.455 177.9 256.272 179.934 257.883 180.212C257.384 184.845 254.552 188.901 250.374 190.966C251.89 195.219 252.482 199.746 252.111 204.245C252.836 198.987 258.482 197.71 262.429 195.62C263.144 195.162 264.095 195.37 264.553 196.084C264.761 196.408 264.84 196.798 264.774 197.177C264.229 197.398 263.708 197.673 263.217 197.998C262.602 198.411 262.439 199.245 262.852 199.86C263.077 200.194 263.44 200.409 263.841 200.447C261.851 205.369 256.708 208.674 251.425 208.655C250.918 210.861 250.182 213.007 249.23 215.06H241.39C241.362 214.973 241.336 214.883 241.311 214.796C242.037 214.842 242.765 214.798 243.481 214.667C241.561 212.395 240.076 211.235 241.193 208.063Z" fill="#F2F2F2"/>
<path d="M87.6736 207.945C87.1289 207.97 86.667 207.549 86.642 207.005C86.6286 206.714 86.7442 206.432 86.958 206.234L87.0257 205.966C86.489 204.603 84.9489 203.933 83.5857 204.469C82.9169 204.733 82.3836 205.256 82.1077 205.919C80.9375 208.657 79.423 211.492 80.1762 214.508C75.2011 203.967 76.893 190.856 84.2456 181.842C86.3441 180.728 87.8464 178.747 88.354 176.426C87.3482 176.767 86.0941 175.949 86.8503 174.89C87.1781 174.485 87.5091 174.084 87.8369 173.679C84.0161 169.611 79.4638 176.004 83.6693 181.494C82.2936 183.218 81.1019 185.081 80.1138 187.053C80.3419 184.96 80.0696 182.841 79.3191 180.873C78.5585 179.039 77.1328 177.494 75.8773 175.908C74.9491 174.719 73.2321 174.507 72.0422 175.435C71.4526 175.895 71.0773 176.576 71.0037 177.32C72.4124 177.782 72.5954 179.817 70.984 180.095C71.4826 184.727 74.315 188.784 78.4929 190.849C76.9767 195.101 76.3846 199.628 76.7562 204.128C76.0315 198.869 70.3848 197.593 66.438 195.503C65.7233 195.045 64.7723 195.253 64.3139 195.967C64.1062 196.291 64.0275 196.681 64.0933 197.06C64.6381 197.281 65.1595 197.556 65.6498 197.881C66.2649 198.294 66.4283 199.128 66.0147 199.742C65.79 200.076 65.4272 200.292 65.0263 200.33C67.0158 205.252 72.1592 208.557 77.4419 208.538C77.9495 210.743 78.6851 212.89 79.6367 214.943H87.4772C87.5053 214.856 87.5306 214.766 87.5559 214.679C86.8301 214.725 86.1015 214.681 85.3864 214.55C87.3064 212.277 88.7911 211.118 87.6736 207.945Z" fill="#F2F2F2"/>
<path d="M107.317 116.189L106.483 111.357L119.162 105.634L121.9 100.788C121.636 99.5135 122.454 98.266 123.729 98.0012C125.003 97.7364 126.251 98.5545 126.516 99.8286C126.723 100.826 126.266 101.844 125.382 102.352L120.877 109.313L107.317 116.189Z" fill="#A0616A"/>
<path d="M103.464 112.238L109.173 109.323L110.685 114.997L106.719 117.935L103.464 112.238Z" fill="#3F3D56"/>
<path d="M90.6511 208.669H94.1032L95.7455 195.358H90.6507L90.6511 208.669Z" fill="#A0616A"/>
<path d="M95.2521 208.98V206.641L94.3445 206.696L90.65 206.915L89.795 206.967L89.1413 214.803L89.1063 215.223H91.5576L91.6364 214.806L91.9924 212.909L92.9117 214.806L93.113 215.223H99.612C100.417 215.218 101.068 214.566 101.071 213.761C101.345 212.481 95.9408 209.712 95.2521 208.98Z" fill="#2F2E41"/>
<path d="M49.7545 196.245L52.577 198.232L61.5885 188.295L57.4227 185.362L49.7545 196.245Z" fill="#A0616A"/>
<path d="M53.4379 198.893L54.7858 196.981L54.0119 196.504L50.8655 194.556L50.1363 194.106L45.0876 200.136L44.817 200.459L46.821 201.87L47.1257 201.574L48.5092 200.229L48.1683 202.309L48.0926 202.765L53.4055 206.507C54.0664 206.966 54.974 206.808 55.4403 206.152C56.4024 205.263 53.5791 199.888 53.4379 198.893Z" fill="#2F2E41"/>
<path d="M95.989 122.52L91.5453 120.444L82.6838 131.164L77.2861 132.528C76.1263 131.938 74.7069 132.398 74.1157 133.558C73.5246 134.717 73.9855 136.136 75.1453 136.727C76.0536 137.19 77.1565 137.016 77.8788 136.297L85.7828 133.786L95.989 122.52Z" fill="#A0616A"/>
<path d="M91.509 139.788C91.509 139.788 84.2181 144.534 86.146 147.688C86.2125 147.796 70.6159 169.441 70.6159 169.441L53.1268 188.29L59.1386 193.753C59.1386 193.753 75.7534 176.458 78.5406 173.539C81.3279 170.619 93.5022 156.014 93.5022 156.014L93.95 174.064L89.2894 199.076L96.2482 198.635L103.021 173.542L105.521 145.117L91.509 139.788Z" fill="#2F2E41"/>
<path d="M96.7024 111.305L93.6364 113.628L90.1418 121.084L93.5022 125.646C93.5022 125.646 96.3288 130.543 91.8044 135.285C87.2799 140.028 83.8056 145.093 87.427 144.912C91.0484 144.731 105.715 152.188 105.812 146.079C105.908 139.969 106.104 135.285 106.104 135.285L109.949 125.536C109.949 125.536 112.24 119.719 110.632 117.978C109.023 116.237 106.87 114.013 106.87 114.013L102.953 110.098H99.4166L96.7024 111.305Z" fill="#3F3D56"/>
<path d="M102.426 96.98C109.304 100.893 103.657 111.216 96.6509 107.54C89.7728 103.627 95.4195 93.3041 102.426 96.98Z" fill="#A0616A"/>
<path d="M106.104 99.1494C105.622 99.776 104.615 99.4822 102.643 99.9294C102.647 99.2612 102.57 98.5951 102.413 97.9456C102.266 98.7497 101.945 99.5118 101.471 100.178C99.7591 100.368 101.858 105.568 100.981 109.391C99.8518 101.325 97.476 103.438 98.6762 105.038C99.4446 106.062 98.9323 109.135 96.6272 107.598C92.8239 109.405 87.4068 100.43 93.4106 96.2201C93.3033 93.9448 95.836 93.5853 97.3956 94.2849C101.181 91.4664 105.505 95.0778 106.104 99.1494Z" fill="#2F2E41"/>
<path d="M88.4557 93.2643C86.9243 102.676 78.7164 91.5334 74.857 100.796C73.6436 104.15 75.7255 106.549 77.0424 109.333C77.343 111.622 74.3653 112.782 74.0534 114.889C73.9666 119.717 81.7595 119.422 83.9381 116.375C86.1766 113.186 83.5035 108.908 84.849 105.484C86.7401 100.732 94.4308 100.697 95.1008 95.1678C93.8032 93.3207 90.3141 91.2052 88.4557 93.2643Z" fill="#2F2E41"/>
<path d="M94.6592 94.1841C94.6091 94.2051 94.559 94.2262 94.5142 94.25H94.5115C94.4694 94.271 94.4272 94.2921 94.385 94.3158C94.3797 94.3185 94.3771 94.3211 94.3718 94.3238C94.3164 94.271 94.2611 94.2183 94.2031 94.1656C94.1881 94.2515 94.1916 94.3395 94.2136 94.4239L94.2215 94.4555C94.2742 94.5109 94.3296 94.5636 94.3876 94.6189C94.4404 94.5794 94.4905 94.5372 94.5432 94.4977C94.5748 94.4713 94.6065 94.445 94.6407 94.4186C94.646 94.3501 94.6539 94.271 94.6618 94.184L94.6592 94.1841ZM96.2465 91.2531C95.0705 90.9843 94.6908 92.5209 94.5775 93.2616C94.1503 90.5731 92.3732 91.4192 92.9875 93.2536C93.1834 93.7968 93.4915 94.2925 93.8919 94.7086C93.9473 94.7718 94.0079 94.8351 94.0712 94.8984C94 95.2674 94.3586 95.1725 94.8438 94.8325C95.202 94.5778 95.5333 94.2872 95.8325 93.9653C96.8002 92.9505 97.5543 91.5931 96.2465 91.2531ZM96.2834 92.766C95.9206 93.2337 95.5136 93.6653 95.0679 94.0549C94.9281 94.1814 94.7857 94.3027 94.6407 94.4186C94.6381 94.4423 94.6381 94.4635 94.6355 94.4819C94.6253 94.5075 94.6129 94.5322 94.5986 94.5557C94.4509 94.8219 94.2848 94.6769 94.2215 94.4555C94.2162 94.4476 94.2083 94.4397 94.203 94.4319C93.9923 94.2143 93.809 93.9717 93.6572 93.7097C92.5683 91.8225 94.3217 90.5389 94.2347 94.0629C94.2187 94.0952 94.208 94.1298 94.2031 94.1656C94.1881 94.2515 94.1916 94.3395 94.2136 94.4239L94.2215 94.4555C94.2742 94.5109 94.3296 94.5636 94.3876 94.6189C94.4404 94.5794 94.4905 94.5372 94.5432 94.4977C94.5748 94.4713 94.6065 94.445 94.6407 94.4186C94.646 94.3501 94.6539 94.271 94.6618 94.184L94.6618 94.1815C94.7304 93.4751 94.9176 92.2047 95.263 91.8594C96.0224 91.2769 97.0059 91.9068 96.2834 92.766ZM94.6592 94.1841C94.6091 94.2051 94.559 94.2262 94.5142 94.25H94.5115C94.4694 94.271 94.4272 94.2921 94.385 94.3158C94.3797 94.3185 94.3771 94.3211 94.3718 94.3238C94.3164 94.271 94.2611 94.2183 94.2031 94.1656C94.1881 94.2515 94.1916 94.3395 94.2136 94.4239L94.2215 94.4555C94.2742 94.5109 94.3296 94.5636 94.3876 94.6189C94.4404 94.5794 94.4905 94.5372 94.5432 94.4977C94.5748 94.4713 94.6065 94.445 94.6407 94.4186C94.646 94.3501 94.6539 94.271 94.6618 94.184L94.6592 94.1841Z" fill="#2F2E41"/>
<path d="M239.505 209.222L236.128 209.99L231.558 197.336L236.542 196.203L239.505 209.222Z" fill="#FFB6B6"/>
<path d="M240.425 212.716L230.042 215.078L230.012 214.946C229.504 212.715 230.902 210.495 233.134 209.987L234.703 208.117L238.569 208.751L239.476 208.545L240.425 212.716Z" fill="#2F2E41"/>
<path d="M283.536 202.57L280.62 204.437L272.03 194.08L276.334 191.325L283.536 202.57Z" fill="#FFB6B6"/>
<path d="M285.586 205.546L276.618 211.285L276.546 211.172C275.311 209.245 275.874 206.683 277.801 205.449L278.644 203.158L282.496 202.444L283.279 201.943L285.586 205.546Z" fill="#2F2E41"/>
<path d="M237.257 146.188L234.717 152.811L222.8 176.308L233.271 203.643L238.675 202.218L234.221 176.308L247 160.787L254.42 176.735L275.735 200.227L280.654 196.949L264.804 172.637L254.25 141.805L237.257 146.188Z" fill="#2F2E41"/>
<path d="M250.075 114.95L245.894 110.459L238.72 109.473L229.931 115.623L230.019 122.432L234.364 138.474C234.364 138.474 232.709 150 237.332 149.885C241.955 149.769 244.474 147.465 246.357 147.934C248.24 148.403 256.243 150.399 256.75 148.309C257.258 146.218 259.954 147.715 259.835 145.737C259.717 143.76 252.537 129.504 252.537 129.504L253.793 119.469C254.07 117.262 252.503 115.248 250.295 114.972C250.222 114.962 250.149 114.955 250.075 114.95Z" fill="#3F3D56"/>
<path d="M278.933 143.247C277.549 143.54 276.189 142.657 275.895 141.273C275.864 141.126 275.846 140.976 275.841 140.825L256.614 133.258L260.273 130.262L278.501 138.152C279.923 138.2 281.036 139.39 280.988 140.811C280.948 142 280.099 143.007 278.933 143.247Z" fill="#FFB6B6"/>
<path d="M251.7 115.783C251.7 115.783 248.425 115.758 248.023 119.484C247.621 123.211 254.488 132.663 255.549 134.22C255.881 134.707 257.309 135.262 259.114 135.794C259.925 136.032 260.811 136.267 261.708 136.488C262.227 136.616 262.459 137.476 262.973 137.595C263.484 137.712 264.277 137.087 264.758 137.192C267.041 137.687 268.846 138.017 268.846 138.017L273.114 135.109C270.961 131.931 266.842 130.631 262.175 129.854L251.7 115.783Z" fill="#3F3D56"/>
<path d="M203.507 98.475C203.722 99.8726 205.03 100.831 206.428 100.616C206.578 100.593 206.724 100.557 206.867 100.508L220.754 115.803L222.262 111.321L208.426 97.0746C207.878 95.7626 206.37 95.1432 205.057 95.6911C203.959 96.1495 203.318 97.3004 203.507 98.475Z" fill="#FFB6B6"/>
<path d="M238.844 114.208C238.844 114.208 240.027 117.261 236.683 118.957C233.339 120.653 222.064 117.58 220.232 117.139C219.658 117.001 218.634 115.862 217.497 114.363C216.987 113.69 216.454 112.945 215.929 112.184C215.626 111.744 214.739 111.832 214.446 111.393C214.155 110.957 214.459 109.995 214.191 109.582C212.919 107.623 211.971 106.053 211.971 106.053L213.18 101.033C216.916 101.921 219.591 105.311 221.971 109.399L238.844 114.208Z" fill="#3F3D56"/>
<path d="M242.45 108.33C246.219 108.33 249.275 105.275 249.275 101.507C249.275 97.7394 246.219 94.6848 242.45 94.6848C238.681 94.6848 235.625 97.7394 235.625 101.507C235.625 105.275 238.681 108.33 242.45 108.33Z" fill="#FFB6B6"/>
<path d="M250.241 97.6009C249.527 96.4506 248.216 95.812 246.87 95.9586C246.503 93.4435 244.166 91.702 241.65 92.0688C240.714 92.2052 239.844 92.6261 239.156 93.2743C238.746 92.9858 238.215 92.9327 237.756 93.1343C237.306 93.3386 236.915 93.6524 236.619 94.0469C235.092 95.9504 234.735 98.5391 235.692 100.784C235.532 100.204 236.113 99.6583 236.701 99.5281C237.289 99.3979 237.905 99.5211 238.501 99.4363C239.264 99.3277 239.951 98.8848 240.716 98.7852C241.364 98.743 242.015 98.8266 242.632 99.0313C243.249 99.236 243.898 99.3232 244.547 99.2884C245.191 99.212 246.02 101.651 246.009 103.368C246.007 103.694 246.074 104.112 246.392 104.181C246.784 104.266 247.011 103.725 247.384 103.578C247.741 103.476 248.116 103.675 248.231 104.028C248.326 104.379 248.246 104.754 248.016 105.035C247.787 105.31 247.514 105.546 247.21 105.734L247.363 105.862C247.664 106.179 248.148 106.24 248.517 106.005C248.87 105.767 249.155 105.442 249.346 105.062C250.066 103.949 250.58 102.716 250.865 101.422C251.147 100.115 250.924 98.7503 250.241 97.6009Z" fill="#2F2E41"/>
<path d="M172.185 95.1471C172.335 94.0609 171.843 93.0959 171.087 92.9918C170.331 92.8877 169.597 93.6838 169.447 94.7701C169.298 95.8563 169.789 96.8213 170.545 96.9254C171.301 97.0295 172.035 96.2333 172.185 95.1471Z" fill="#3F3D56"/>
<path d="M283.87 141.749H274.833C274.59 141.749 273.252 141.042 273.252 140.169V135.151C273.209 131.355 285.64 131.106 285.687 135.151V140.169C285.687 141.042 284.743 141.749 283.87 141.749Z" fill="#E6E6E6"/>
<path d="M284.338 131.749C283.899 131.592 283.434 131.526 282.969 131.553C283.093 131.512 283.208 131.445 283.304 131.357C283.219 131.353 283.135 131.342 283.052 131.323C282.961 131.306 282.875 131.267 282.801 131.211C282.727 131.152 282.687 131.061 282.696 130.967C282.713 130.852 282.82 130.757 282.809 130.642C282.796 130.51 282.644 130.445 282.562 130.34C282.459 130.178 282.477 129.967 282.605 129.824C282.683 129.734 282.778 129.66 282.885 129.607C282.704 129.561 282.515 129.563 282.336 129.615C282.528 129.467 282.613 129.218 282.553 128.983C282.451 128.691 282.211 128.468 281.911 128.389C281.616 128.315 281.31 128.29 281.007 128.316C281.265 128.237 281.226 127.833 281.029 127.649C280.832 127.465 280.55 127.388 280.364 127.193C280.178 126.997 280.193 126.58 280.461 126.547L280.428 126.452C279.894 126.253 279.3 126.524 279.101 127.057C279.084 127.103 279.07 127.149 279.06 127.197C279.011 127.503 279.102 127.841 278.949 128.11C278.753 128.453 278.278 128.491 277.885 128.453C277.499 128.354 277.09 128.41 276.745 128.609C276.459 128.847 276.421 129.271 276.658 129.556C276.79 129.714 276.988 129.804 277.194 129.798C276.935 129.8 276.678 129.834 276.427 129.899L276.668 129.992C276.722 130.009 276.772 130.037 276.814 130.074C276.856 130.113 276.869 130.174 276.846 130.227C276.807 130.297 276.708 130.294 276.629 130.283L276.105 130.204C276.209 130.238 276.266 130.351 276.231 130.455C276.196 130.559 276.083 130.616 275.979 130.581C275.952 130.572 275.928 130.558 275.907 130.538C275.961 130.601 276.004 130.672 276.035 130.749C276.066 130.827 276.057 130.915 276.011 130.986C275.904 131.083 275.748 131.102 275.621 131.033C275.578 131.017 275.535 130.998 275.492 130.98C275.493 130.995 275.494 131.011 275.496 131.026C275.525 131.227 275.637 131.407 275.805 131.521C275.567 131.549 275.349 131.664 275.191 131.844C274.919 132.183 274.902 132.661 275.151 133.017C274.887 132.9 274.597 132.852 274.309 132.878C274.013 132.914 273.792 133.166 273.793 133.464C273.841 133.83 274.293 133.963 274.659 134.008C277.533 134.362 280.44 134.362 283.314 134.007C283.705 133.981 284.087 133.884 284.443 133.72C284.802 133.55 285.05 133.208 285.099 132.813C285.083 132.337 284.783 131.917 284.338 131.749Z" fill="#15A3B7"/>
<path d="M286.471 135.978C286.406 135.694 286.152 135.494 285.86 135.495C285.583 135.502 285.334 135.701 285.061 135.657C284.835 135.621 284.657 135.423 284.429 135.454C284.221 135.481 284.108 135.685 283.953 135.795H283.553C283.397 135.672 283.321 135.424 283.105 135.355C282.78 135.25 282.519 135.617 282.179 135.681C281.982 135.703 281.783 135.665 281.608 135.572C281.436 135.479 281.25 135.416 281.057 135.386C280.884 135.36 280.712 135.436 280.614 135.581C280.624 135.477 280.489 135.375 280.353 135.369C280.2 135.374 280.051 135.42 279.921 135.502C279.791 135.583 279.641 135.626 279.487 135.626C279.147 135.596 278.98 135.199 278.638 135.195C278.208 135.189 278.036 135.802 277.61 135.75C277.389 135.723 277.269 135.522 277.072 135.436C276.862 135.372 276.639 135.369 276.428 135.43L275.421 135.618C275.126 135.699 274.815 135.703 274.519 135.627C274.303 135.549 274.093 135.38 273.87 135.444C273.676 135.5 273.582 135.717 273.376 135.729C273.245 135.712 273.119 135.669 273.005 135.601C272.787 135.524 272.544 135.586 272.389 135.757C272.277 136.216 272.258 136.693 272.336 137.159C272.333 137.258 272.34 137.358 272.359 137.455L273.372 141.506C273.491 142.127 273.798 142.576 274.431 142.576H284.272C284.905 142.576 285.448 142.127 285.567 141.506L286.58 137.455C286.582 137.445 286.583 137.434 286.585 137.424C286.609 136.939 286.571 136.453 286.471 135.978Z" fill="#CCCCCC"/>
<path opacity="0.2" d="M274.439 135.674L274.636 138.23C274.701 139.083 274.604 139.923 274.67 140.775C274.707 141.255 274.906 141.747 274.943 142.227C274.948 142.283 275.036 142.284 275.032 142.227L274.835 139.67L274.638 137.114L274.528 135.674C274.523 135.617 274.435 135.617 274.439 135.674Z" fill="black"/>
<path opacity="0.2" d="M276.148 135.775L276.225 138.294L276.301 140.814L276.344 142.228C276.346 142.285 276.435 142.285 276.433 142.228L276.356 139.709L276.28 137.189L276.237 135.775C276.235 135.718 276.146 135.718 276.148 135.775Z" fill="black"/>
<path opacity="0.2" d="M277.804 135.926L277.78 138.361L277.757 140.781L277.744 142.153C277.745 142.178 277.765 142.197 277.79 142.196C277.813 142.195 277.832 142.176 277.833 142.153L277.856 139.718L277.879 137.298L277.892 135.926C277.891 135.902 277.871 135.882 277.846 135.883C277.823 135.884 277.805 135.903 277.804 135.926Z" fill="black"/>
<path opacity="0.2" d="M279.055 135.851L279.103 138.316L279.151 140.766L279.178 142.154C279.179 142.178 279.2 142.197 279.224 142.197C279.248 142.196 279.266 142.177 279.267 142.154L279.219 139.689L279.17 137.239L279.143 135.851C279.142 135.827 279.122 135.808 279.097 135.809C279.074 135.81 279.055 135.828 279.055 135.851Z" fill="black"/>
<path opacity="0.2" d="M280.877 135.75L280.933 138.281L280.988 140.811L281.019 142.228C281.02 142.252 281.041 142.272 281.065 142.271C281.088 142.27 281.107 142.251 281.108 142.228L281.053 139.697L280.997 137.167L280.966 135.75C280.965 135.726 280.945 135.707 280.92 135.708C280.897 135.708 280.878 135.727 280.877 135.75Z" fill="black"/>
<path opacity="0.2" d="M282.391 135.827L282.584 138.377L282.777 140.919L282.885 142.352C282.89 142.409 282.978 142.409 282.974 142.352L282.781 139.802L282.588 137.26L282.479 135.827C282.475 135.771 282.386 135.77 282.391 135.827Z" fill="black"/>
<path opacity="0.2" d="M284.072 136.124L284.189 138.457C284.228 139.235 284.03 140.013 284.069 140.79L284.134 142.1C284.137 142.157 284.226 142.157 284.223 142.1C284.184 141.323 284.382 140.545 284.343 139.767L284.226 137.434L284.161 136.124C284.158 136.067 284.069 136.067 284.072 136.124Z" fill="black"/>
<path d="M278.938 129.732C279.125 129.732 279.278 129.627 279.278 129.496C279.278 129.366 279.125 129.26 278.938 129.26C278.75 129.26 278.598 129.366 278.598 129.496C278.598 129.627 278.75 129.732 278.938 129.732Z" fill="#E6E6E6"/>
<path d="M281.094 130.264C281.282 130.264 281.434 130.158 281.434 130.028C281.434 129.897 281.282 129.791 281.094 129.791C280.906 129.791 280.754 129.897 280.754 130.028C280.754 130.158 280.906 130.264 281.094 130.264Z" fill="#3F3D56"/>
<path d="M278.081 131.415C278.269 131.415 278.421 131.31 278.421 131.179C278.421 131.049 278.269 130.943 278.081 130.943C277.894 130.943 277.742 131.049 277.742 131.179C277.742 131.31 277.894 131.415 278.081 131.415Z" fill="#FF6584"/>
<path d="M280.89 131.727C281.009 131.727 281.105 131.66 281.105 131.577C281.105 131.495 281.009 131.428 280.89 131.428C280.772 131.428 280.675 131.495 280.675 131.577C280.675 131.66 280.772 131.727 280.89 131.727Z" fill="#E6E6E6"/>
<path d="M282.253 132.062C282.371 132.062 282.468 131.996 282.468 131.913C282.468 131.831 282.371 131.764 282.253 131.764C282.134 131.764 282.038 131.831 282.038 131.913C282.038 131.996 282.134 132.062 282.253 132.062Z" fill="#3F3D56"/>
<path d="M280.349 132.79C280.467 132.79 280.563 132.723 280.563 132.641C280.563 132.559 280.467 132.492 280.349 132.492C280.23 132.492 280.134 132.559 280.134 132.641C280.134 132.723 280.23 132.79 280.349 132.79Z" fill="#FF6584"/>
<path d="M282.899 132.553C283.017 132.553 283.113 132.486 283.113 132.404C283.113 132.322 283.017 132.255 282.899 132.255C282.78 132.255 282.684 132.322 282.684 132.404C282.684 132.486 282.78 132.553 282.899 132.553Z" fill="#E6E6E6"/>
<path d="M284.261 132.889C284.38 132.889 284.476 132.822 284.476 132.74C284.476 132.658 284.38 132.591 284.261 132.591C284.143 132.591 284.047 132.658 284.047 132.74C284.047 132.822 284.143 132.889 284.261 132.889Z" fill="#3F3D56"/>
<path d="M282.357 133.617C282.476 133.617 282.572 133.55 282.572 133.468C282.572 133.385 282.476 133.318 282.357 133.318C282.239 133.318 282.143 133.385 282.143 133.468C282.143 133.55 282.239 133.617 282.357 133.617Z" fill="#FF6584"/>
<path d="M277.365 131.766C277.381 131.648 277.328 131.544 277.246 131.533C277.165 131.522 277.085 131.608 277.069 131.725C277.053 131.843 277.106 131.947 277.188 131.958C277.269 131.969 277.349 131.883 277.365 131.766Z" fill="#E6E6E6"/>
<path d="M276.845 133.069C276.861 132.952 276.808 132.847 276.726 132.836C276.644 132.825 276.565 132.911 276.549 133.028C276.532 133.146 276.586 133.25 276.667 133.261C276.749 133.273 276.828 133.186 276.845 133.069Z" fill="#3F3D56"/>
<path d="M276.385 131.085C276.401 130.967 276.348 130.863 276.266 130.852C276.184 130.84 276.105 130.926 276.089 131.044C276.073 131.161 276.126 131.266 276.208 131.277C276.289 131.288 276.369 131.202 276.385 131.085Z" fill="#FF6584"/>
<path d="M279.698 131.057C279.715 130.94 279.662 130.836 279.58 130.824C279.498 130.813 279.419 130.899 279.403 131.017C279.386 131.134 279.439 131.238 279.521 131.25C279.603 131.261 279.682 131.175 279.698 131.057Z" fill="#E6E6E6"/>
<path d="M279.18 132.361C279.196 132.243 279.143 132.139 279.061 132.128C278.979 132.117 278.9 132.203 278.884 132.32C278.867 132.438 278.921 132.542 279.002 132.553C279.084 132.564 279.163 132.478 279.18 132.361Z" fill="#3F3D56"/>
<path d="M278.718 130.376C278.734 130.259 278.681 130.154 278.6 130.143C278.518 130.132 278.439 130.218 278.422 130.335C278.406 130.453 278.459 130.557 278.541 130.568C278.623 130.579 278.702 130.493 278.718 130.376Z" fill="#FF6584"/>
<path d="M280.332 129.615C280.348 129.498 280.295 129.393 280.213 129.382C280.131 129.371 280.052 129.457 280.036 129.574C280.019 129.692 280.073 129.796 280.154 129.807C280.236 129.818 280.315 129.732 280.332 129.615Z" fill="#3F3D56"/>
<path d="M279.87 127.63C279.886 127.513 279.833 127.408 279.752 127.397C279.67 127.386 279.591 127.472 279.574 127.589C279.558 127.707 279.611 127.811 279.693 127.822C279.775 127.834 279.854 127.748 279.87 127.63Z" fill="#FF6584"/>
<path d="M343 215.526C342.681 216.471 0.344289 215.864 0 214.921C0.31868 213.974 342.655 214.581 343 215.526Z" fill="#CCCCCC"/>
<path d="M133.208 166.422C127.198 166.422 122.327 161.552 122.327 155.545C122.327 149.538 127.198 144.669 133.208 144.669C139.217 144.669 144.088 149.538 144.088 155.545C144.088 161.552 139.217 166.422 133.208 166.422Z" fill="#E6E6E6"/>
<path d="M137.501 154.472H134.281V151.254C134.281 150.661 133.8 150.181 133.208 150.181C132.615 150.181 132.134 150.661 132.134 151.254V154.472H128.914C128.322 154.472 127.841 154.953 127.841 155.545C127.841 156.138 128.322 156.618 128.914 156.618H132.134V159.837C132.136 160.43 132.617 160.909 133.21 160.907C133.801 160.906 134.28 160.428 134.281 159.837V156.618H137.501C138.094 156.618 138.574 156.138 138.574 155.545C138.574 154.953 138.094 154.472 137.501 154.472Z" fill="white"/>
<path d="M165.041 166.422C159.032 166.422 154.161 161.552 154.161 155.545C154.161 149.538 159.032 144.669 165.041 144.669C171.051 144.669 175.922 149.538 175.922 155.545C175.922 161.552 171.051 166.422 165.041 166.422Z" fill="#E6E6E6"/>
<path d="M169.335 154.472H160.748C160.155 154.472 159.675 154.953 159.675 155.545C159.675 156.138 160.155 156.618 160.748 156.618H169.335C169.927 156.618 170.408 156.138 170.408 155.545C170.408 154.953 169.927 154.472 169.335 154.472Z" fill="white"/>
<path d="M196.875 166.422C190.866 166.422 185.994 161.552 185.994 155.545C185.994 149.538 190.866 144.669 196.875 144.669C202.884 144.669 207.756 149.538 207.756 155.545C207.756 161.552 202.884 166.422 196.875 166.422Z" fill="#15A3B7"/>
<path d="M202.996 155.029L199.912 150.528C199.626 150.111 199.057 150.005 198.64 150.29C198.223 150.576 198.117 151.145 198.402 151.562L200.397 154.472H192.582C191.989 154.472 191.508 154.953 191.508 155.545C191.508 156.138 191.989 156.618 192.582 156.618H200.495L198.402 159.672C198.118 160.089 198.225 160.658 198.643 160.943C199.059 161.226 199.626 161.121 199.912 160.706L202.996 156.205C203.2 155.84 203.2 155.394 202.996 155.029Z" fill="white"/>
<path d="M117.843 37.764H103.527C102.451 37.764 101.58 38.6354 101.58 39.7103V39.7103C101.58 40.7852 102.451 41.6565 103.527 41.6565H117.843C118.918 41.6565 119.789 40.7852 119.789 39.7103C119.789 38.6354 118.918 37.764 117.843 37.764Z" fill="#15A3B7"/>
<path d="M127.091 45.549H94.2786C93.2033 45.549 92.3316 46.4204 92.3316 47.4953V47.4953C92.3316 48.5702 93.2033 49.4416 94.2786 49.4416H127.091C128.166 49.4416 129.038 48.5702 129.038 47.4953C129.038 46.4204 128.166 45.549 127.091 45.549Z" fill="#E6E6E6"/>
<path d="M127.091 53.3341H94.2786C93.2033 53.3341 92.3316 54.2054 92.3316 55.2803V55.2803C92.3316 56.3552 93.2033 57.2266 94.2786 57.2266H127.091C128.166 57.2266 129.038 56.3552 129.038 55.2803C129.038 54.2054 128.166 53.3341 127.091 53.3341Z" fill="#E6E6E6"/>
<path d="M125.067 95.1246H124.235V63.928H64.9088V63.0966H125.067V95.1246Z" fill="#E6E6E6"/>
<path d="M55.6391 72.6429C62.0196 72.6429 67.1919 67.4724 67.1919 61.0943C67.1919 54.7162 62.0196 49.5457 55.6391 49.5457C49.2587 49.5457 44.0863 54.7162 44.0863 61.0943C44.0863 67.4724 49.2587 72.6429 55.6391 72.6429Z" fill="#E6E6E6"/>
<path d="M54.0631 67.1048C53.6586 67.1048 53.2777 66.9144 53.0351 66.5908L49.8833 62.3899C49.4575 61.8223 49.5726 61.0172 50.1404 60.5915C50.7082 60.1658 51.5136 60.2809 51.9395 60.8485L54.0015 63.5966L59.2975 55.6556C59.6912 55.0653 60.4891 54.9058 61.0796 55.2993C61.6702 55.6929 61.8297 56.4905 61.436 57.0808L55.1325 66.5327C54.9011 66.8796 54.5157 67.0927 54.0988 67.1044C54.0869 67.1046 54.075 67.1048 54.0631 67.1048Z" fill="white"/>
<path d="M203.431 93.48H202.599V61.452H262.758V62.2834H203.431V93.48Z" fill="#E6E6E6"/>
<path d="M271.983 70.9983C278.363 70.9983 283.535 65.8278 283.535 59.4497C283.535 53.0716 278.363 47.9011 271.983 47.9011C265.602 47.9011 260.43 53.0716 260.43 59.4497C260.43 65.8278 265.602 70.9983 271.983 70.9983Z" fill="#E6E6E6"/>
<path d="M270.407 65.4602C270.002 65.4602 269.621 65.2698 269.379 64.9462L266.227 60.7453C265.8 60.1788 265.913 59.3733 266.479 58.9463C267.046 58.5192 267.852 58.6322 268.279 59.1988L268.283 59.2039L270.345 61.952L275.641 54.011C276.035 53.4207 276.833 53.2612 277.423 53.6547C278.014 54.0483 278.173 54.8459 277.78 55.4362L271.476 64.8881C271.245 65.235 270.859 65.4481 270.442 65.4598C270.43 65.46 270.418 65.4602 270.407 65.4602Z" fill="white"/>
<path d="M128.373 98.8107H119.336C119.093 98.8107 117.755 98.1033 117.755 97.2306V92.2121C117.712 88.4161 130.143 88.1677 130.19 92.2121V97.2306C130.19 98.1033 129.246 98.8107 128.373 98.8107Z" fill="#E6E6E6"/>
<path d="M128.841 88.8103C128.402 88.6535 127.937 88.5868 127.472 88.6142C127.596 88.5731 127.71 88.5062 127.807 88.4179C127.722 88.4145 127.638 88.4031 127.555 88.3839C127.463 88.3668 127.378 88.3284 127.304 88.2718C127.23 88.2135 127.19 88.1218 127.199 88.028C127.216 87.9132 127.323 87.8187 127.312 87.7032C127.299 87.5708 127.147 87.5064 127.065 87.4015C126.962 87.2392 126.98 87.0287 127.108 86.8856C127.186 86.7951 127.281 86.7212 127.388 86.6683C127.207 86.622 127.018 86.6247 126.839 86.6762C127.03 86.5278 127.116 86.2796 127.055 86.0447C126.954 85.7522 126.714 85.5295 126.414 85.4507C126.119 85.3763 125.813 85.3516 125.51 85.3777C125.768 85.2985 125.729 84.8945 125.532 84.7104C125.334 84.5262 125.052 84.4493 124.867 84.2538C124.681 84.0583 124.696 83.6409 124.964 83.6085L124.931 83.5132C124.397 83.314 123.803 83.5849 123.604 84.1183C123.587 84.1639 123.573 84.2107 123.563 84.2583C123.513 84.564 123.605 84.9021 123.451 85.171C123.256 85.5139 122.781 85.5527 122.388 85.5147C122.002 85.4157 121.593 85.4716 121.248 85.6703C120.962 85.908 120.923 86.332 121.161 86.6173C121.293 86.7757 121.491 86.8649 121.697 86.8592C121.438 86.861 121.181 86.8949 120.93 86.9603L121.171 87.0536C121.225 87.0702 121.275 87.098 121.317 87.1351C121.359 87.174 121.372 87.2355 121.349 87.2882C121.31 87.358 121.211 87.3556 121.132 87.3438L120.608 87.265C120.712 87.2997 120.769 87.4123 120.734 87.5165C120.699 87.6207 120.586 87.677 120.482 87.6422C120.455 87.6333 120.431 87.6188 120.41 87.5997C120.464 87.6625 120.507 87.7336 120.538 87.8103C120.569 87.8884 120.56 87.9767 120.514 88.0469C120.407 88.1445 120.251 88.1636 120.124 88.0944C120.081 88.078 120.038 88.0589 119.995 88.0415C119.996 88.0566 119.997 88.0718 119.999 88.087C120.028 88.2882 120.14 88.468 120.308 88.5826C120.07 88.6102 119.852 88.7254 119.694 88.9055C119.422 89.2441 119.405 89.722 119.654 90.0785C119.39 89.9616 119.1 89.9137 118.812 89.9391C118.516 89.9755 118.295 90.2277 118.296 90.5257C118.344 90.8908 118.796 91.0243 119.162 91.0696C122.036 91.4232 124.943 91.4228 127.817 91.0685C128.208 91.0421 128.59 90.9449 128.946 90.7815C129.305 90.6114 129.553 90.269 129.602 89.8741C129.586 89.3984 129.286 88.9787 128.841 88.8103Z" fill="#15A3B7"/>
<path d="M130.974 93.0397C130.909 92.7556 130.655 92.5548 130.363 92.5562C130.085 92.5635 129.837 92.7618 129.564 92.7184C129.338 92.6823 129.16 92.4847 128.932 92.5148C128.723 92.5425 128.611 92.7463 128.455 92.856H128.056C127.9 92.7336 127.824 92.4855 127.608 92.416C127.283 92.3112 127.022 92.6778 126.682 92.7427C126.485 92.7646 126.286 92.7266 126.111 92.6336C125.939 92.5406 125.753 92.4776 125.56 92.4474C125.387 92.4214 125.215 92.4972 125.117 92.6421C125.127 92.5384 124.992 92.4367 124.855 92.4301C124.702 92.4357 124.554 92.4815 124.424 92.563C124.294 92.6444 124.143 92.6874 123.99 92.6871C123.65 92.6575 123.483 92.2603 123.141 92.256C122.711 92.2505 122.539 92.8634 122.113 92.8112C121.892 92.784 121.772 92.5831 121.575 92.4972C121.365 92.4329 121.142 92.4307 120.931 92.4909L119.924 92.6793C119.629 92.7607 119.318 92.7638 119.021 92.6882C118.806 92.6101 118.596 92.4409 118.373 92.5053C118.179 92.5614 118.085 92.7785 117.879 92.7898C117.748 92.7732 117.622 92.73 117.508 92.6627C117.29 92.5857 117.047 92.6468 116.892 92.8179C116.78 93.2769 116.761 93.754 116.839 94.2202C116.836 94.3196 116.843 94.419 116.862 94.5167L117.875 98.5671C117.994 99.1883 118.301 99.6375 118.934 99.6375H128.775C129.408 99.6375 129.951 99.1883 130.07 98.5671L131.083 94.5167C131.085 94.5062 131.086 94.4958 131.088 94.4853C131.112 94.0006 131.074 93.5148 130.974 93.0397Z" fill="#CCCCCC"/>
<path opacity="0.2" d="M118.942 92.7349L119.139 95.2915C119.204 96.1437 119.107 96.9841 119.173 97.8363C119.21 98.3163 119.409 98.8081 119.446 99.2881C119.45 99.3446 119.539 99.3451 119.535 99.2881L119.338 96.7315L119.141 94.1748L119.03 92.7349C119.026 92.6784 118.937 92.6779 118.942 92.7349Z" fill="black"/>
<path opacity="0.2" d="M120.651 92.8361L120.728 95.3555L120.804 97.8748L120.847 99.2892C120.849 99.3461 120.938 99.3463 120.936 99.2892L120.859 96.7698L120.782 94.2505L120.739 92.8361C120.738 92.7792 120.649 92.779 120.651 92.8361Z" fill="black"/>
<path opacity="0.2" d="M122.307 92.9872L122.283 95.422L122.26 97.8421L122.247 99.2144C122.248 99.2389 122.268 99.258 122.293 99.2572C122.316 99.2564 122.335 99.2377 122.336 99.2144L122.359 96.7796L122.382 94.3596L122.395 92.9872C122.394 92.9628 122.374 92.9436 122.349 92.9445C122.326 92.9453 122.307 92.9639 122.307 92.9872Z" fill="black"/>
<path opacity="0.2" d="M123.557 92.9127L123.606 95.3776L123.654 97.8277L123.681 99.2151C123.682 99.2396 123.703 99.2587 123.727 99.2579C123.751 99.2571 123.769 99.2384 123.77 99.2151L123.722 96.7502L123.673 94.3001L123.646 92.9127C123.645 92.8883 123.625 92.8691 123.6 92.87C123.577 92.8708 123.558 92.8895 123.557 92.9127Z" fill="black"/>
<path opacity="0.2" d="M125.38 92.8115L125.436 95.3421L125.491 97.8727L125.522 99.2893C125.523 99.3137 125.544 99.3329 125.568 99.3321C125.591 99.3313 125.61 99.3126 125.611 99.2893L125.555 96.7587L125.5 94.2281L125.469 92.8115C125.468 92.7871 125.448 92.7679 125.423 92.7688C125.4 92.7696 125.381 92.7883 125.38 92.8115Z" fill="black"/>
<path opacity="0.2" d="M126.894 92.8882L127.087 95.438L127.28 97.9805L127.388 99.4133C127.392 99.4698 127.481 99.4703 127.477 99.4133L127.283 96.8636L127.091 94.3211L126.982 92.8882C126.978 92.8318 126.889 92.8313 126.894 92.8882Z" fill="black"/>
<path opacity="0.2" d="M128.575 93.1854L128.692 95.5184C128.73 96.2961 128.533 97.0738 128.572 97.8514L128.637 99.1615C128.64 99.2182 128.729 99.2185 128.726 99.1615C128.687 98.3838 128.885 97.6061 128.846 96.8284L128.729 94.4954L128.664 93.1854C128.661 93.1287 128.572 93.1283 128.575 93.1854Z" fill="black"/>
<path d="M123.441 86.7935C123.628 86.7935 123.78 86.6878 123.78 86.5573C123.78 86.4269 123.628 86.3211 123.441 86.3211C123.253 86.3211 123.101 86.4269 123.101 86.5573C123.101 86.6878 123.253 86.7935 123.441 86.7935Z" fill="#E6E6E6"/>
<path d="M125.597 87.325C125.785 87.325 125.937 87.2192 125.937 87.0888C125.937 86.9583 125.785 86.8526 125.597 86.8526C125.409 86.8526 125.257 86.9583 125.257 87.0888C125.257 87.2192 125.409 87.325 125.597 87.325Z" fill="#3F3D56"/>
<path d="M122.584 88.4765C122.772 88.4765 122.924 88.3708 122.924 88.2403C122.924 88.1098 122.772 88.0041 122.584 88.0041C122.397 88.0041 122.244 88.1098 122.244 88.2403C122.244 88.3708 122.397 88.4765 122.584 88.4765Z" fill="#FF6584"/>
<path d="M125.393 88.7879C125.512 88.7879 125.608 88.721 125.608 88.6386C125.608 88.5561 125.512 88.4893 125.393 88.4893C125.274 88.4893 125.178 88.5561 125.178 88.6386C125.178 88.721 125.274 88.7879 125.393 88.7879Z" fill="#E6E6E6"/>
<path d="M126.756 89.1238C126.874 89.1238 126.97 89.0569 126.97 88.9745C126.97 88.892 126.874 88.8252 126.756 88.8252C126.637 88.8252 126.541 88.892 126.541 88.9745C126.541 89.0569 126.637 89.1238 126.756 89.1238Z" fill="#3F3D56"/>
<path d="M124.852 89.8515C124.97 89.8515 125.066 89.7846 125.066 89.7022C125.066 89.6198 124.97 89.5529 124.852 89.5529C124.733 89.5529 124.637 89.6198 124.637 89.7022C124.637 89.7846 124.733 89.8515 124.852 89.8515Z" fill="#FF6584"/>
<path d="M127.402 89.6146C127.52 89.6146 127.616 89.5477 127.616 89.4653C127.616 89.3828 127.52 89.316 127.402 89.316C127.283 89.316 127.187 89.3828 127.187 89.4653C127.187 89.5477 127.283 89.6146 127.402 89.6146Z" fill="#E6E6E6"/>
<path d="M128.764 89.9505C128.883 89.9505 128.979 89.8836 128.979 89.8012C128.979 89.7188 128.883 89.6519 128.764 89.6519C128.646 89.6519 128.55 89.7188 128.55 89.8012C128.55 89.8836 128.646 89.9505 128.764 89.9505Z" fill="#3F3D56"/>
<path d="M126.86 90.6782C126.979 90.6782 127.075 90.6114 127.075 90.529C127.075 90.4465 126.979 90.3797 126.86 90.3797C126.742 90.3797 126.646 90.4465 126.646 90.529C126.646 90.6114 126.742 90.6782 126.86 90.6782Z" fill="#FF6584"/>
<path d="M121.868 88.8271C121.884 88.7097 121.831 88.6054 121.749 88.5942C121.668 88.5829 121.588 88.669 121.572 88.7864C121.556 88.9038 121.609 89.0081 121.691 89.0193C121.772 89.0306 121.852 88.9445 121.868 88.8271Z" fill="#E6E6E6"/>
<path d="M121.349 90.1308C121.365 90.0134 121.312 89.9091 121.23 89.8978C121.149 89.8866 121.069 89.9726 121.053 90.09C121.037 90.2074 121.09 90.3117 121.172 90.323C121.253 90.3342 121.333 90.2482 121.349 90.1308Z" fill="#3F3D56"/>
<path d="M120.888 88.1459C120.904 88.0284 120.851 87.9241 120.769 87.9129C120.687 87.9016 120.608 87.9877 120.592 88.1051C120.576 88.2225 120.629 88.3268 120.71 88.3381C120.792 88.3493 120.872 88.2633 120.888 88.1459Z" fill="#FF6584"/>
<path d="M124.201 88.1185C124.218 88.0011 124.164 87.8968 124.083 87.8855C124.001 87.8743 123.922 87.9604 123.905 88.0778C123.889 88.1952 123.942 88.2995 124.024 88.3107C124.106 88.322 124.185 88.2359 124.201 88.1185Z" fill="#E6E6E6"/>
<path d="M123.682 89.4221C123.699 89.3047 123.646 89.2004 123.564 89.1892C123.482 89.1779 123.403 89.264 123.387 89.3814C123.37 89.4988 123.424 89.6031 123.505 89.6143C123.587 89.6256 123.666 89.5395 123.682 89.4221Z" fill="#3F3D56"/>
<path d="M123.221 87.4372C123.237 87.3198 123.184 87.2155 123.103 87.2043C123.021 87.193 122.941 87.2791 122.925 87.3965C122.909 87.5139 122.962 87.6182 123.044 87.6294C123.126 87.6407 123.205 87.5546 123.221 87.4372Z" fill="#FF6584"/>
<path d="M124.833 86.6758C124.85 86.5584 124.797 86.4541 124.715 86.4428C124.633 86.4315 124.554 86.5176 124.538 86.635C124.521 86.7524 124.575 86.8567 124.656 86.868C124.738 86.8792 124.817 86.7932 124.833 86.6758Z" fill="#3F3D56"/>
<path d="M124.373 84.6913C124.389 84.5739 124.336 84.4696 124.254 84.4583C124.173 84.4471 124.093 84.5331 124.077 84.6505C124.061 84.7679 124.114 84.8723 124.196 84.8835C124.278 84.8948 124.357 84.8087 124.373 84.6913Z" fill="#FF6584"/>
<path d="M207.976 97.0577H198.939C198.696 97.0577 197.358 96.3502 197.358 95.4775V90.459C197.315 86.6631 209.746 86.4146 209.793 90.459V95.4775C209.793 96.3502 208.849 97.0577 207.976 97.0577Z" fill="#E6E6E6"/>
<path d="M208.444 87.0573C208.005 86.9005 207.54 86.8338 207.075 86.8612C207.199 86.8201 207.314 86.7532 207.41 86.6649C207.325 86.6614 207.241 86.6501 207.158 86.6309C207.067 86.6138 206.981 86.5753 206.907 86.5187C206.833 86.4604 206.794 86.3687 206.802 86.2749C206.819 86.1601 206.926 86.0656 206.915 85.9501C206.902 85.8178 206.75 85.7533 206.668 85.6485C206.566 85.4861 206.583 85.2756 206.711 85.1325C206.789 85.0421 206.884 84.9682 206.991 84.9152C206.81 84.8689 206.621 84.8716 206.442 84.9232C206.634 84.7747 206.719 84.5265 206.659 84.2916C206.557 83.9991 206.317 83.7764 206.017 83.6977C205.722 83.6233 205.416 83.5986 205.113 83.6246C205.371 83.5454 205.332 83.1415 205.135 82.9573C204.938 82.7731 204.656 82.6962 204.47 82.5007C204.284 82.3052 204.299 81.8879 204.567 81.8554L204.534 81.7602C204 81.561 203.406 81.8319 203.207 82.3652C203.19 82.4108 203.176 82.4577 203.166 82.5053C203.117 82.8109 203.208 83.149 203.055 83.418C202.859 83.7608 202.384 83.7996 201.991 83.7616C201.605 83.6627 201.196 83.7185 200.851 83.9172C200.565 84.1549 200.527 84.5789 200.764 84.8643C200.896 85.0227 201.094 85.1118 201.3 85.1061C201.041 85.1079 200.784 85.1419 200.534 85.2072L200.775 85.3006C200.828 85.3171 200.878 85.3449 200.92 85.3821C200.962 85.421 200.975 85.4824 200.952 85.5351C200.914 85.605 200.814 85.6026 200.735 85.5907L200.211 85.5119C200.315 85.5467 200.372 85.6593 200.337 85.7635C200.302 85.8676 200.189 85.9239 200.085 85.8892C200.059 85.8802 200.034 85.8657 200.013 85.8466C200.067 85.9094 200.11 85.9806 200.141 86.0572C200.172 86.1354 200.163 86.2236 200.117 86.2939C200.011 86.3915 199.854 86.4105 199.727 86.3413C199.684 86.325 199.641 86.3059 199.598 86.2884C199.599 86.3035 199.6 86.3187 199.602 86.3339C199.631 86.5352 199.743 86.715 199.911 86.8295C199.673 86.8572 199.455 86.9723 199.298 87.1525C199.025 87.4911 199.008 87.9689 199.257 88.3254C198.993 88.2086 198.703 88.1606 198.415 88.186C198.119 88.2224 197.898 88.4746 197.9 88.7727C197.947 89.1377 198.399 89.2712 198.765 89.3165C201.639 89.6701 204.546 89.6698 207.42 89.3155C207.811 89.2891 208.193 89.1918 208.549 89.0285C208.909 88.8583 209.156 88.5159 209.205 88.1211C209.189 87.6454 208.889 87.2257 208.444 87.0573Z" fill="#15A3B7"/>
<path d="M210.577 91.2867C210.512 91.0026 210.258 90.8018 209.966 90.8031C209.689 90.8104 209.44 91.0088 209.168 90.9653C208.941 90.9293 208.763 90.7316 208.535 90.7618C208.327 90.7894 208.214 90.9933 208.059 91.1029H207.659C207.503 90.9805 207.427 90.7325 207.211 90.6629C206.886 90.5582 206.625 90.9248 206.285 90.9897C206.088 91.0115 205.889 90.9735 205.714 90.8806C205.542 90.7876 205.356 90.7246 205.163 90.6944C204.99 90.6684 204.818 90.7442 204.72 90.8891C204.73 90.7854 204.596 90.6837 204.459 90.6771C204.306 90.6827 204.157 90.7285 204.027 90.81C203.897 90.8914 203.747 90.9344 203.593 90.9341C203.253 90.9045 203.086 90.5073 202.744 90.5029C202.314 90.4975 202.142 91.1104 201.716 91.0582C201.495 91.031 201.375 90.8301 201.178 90.7442C200.968 90.6799 200.745 90.6777 200.534 90.7379L199.528 90.9263C199.232 91.0077 198.921 91.0108 198.625 90.9351C198.409 90.857 198.199 90.6879 197.976 90.7523C197.782 90.8083 197.688 91.0255 197.482 91.0368C197.351 91.0202 197.225 90.977 197.111 90.9097C196.893 90.8326 196.65 90.8938 196.495 91.0649C196.383 91.5239 196.364 92.001 196.442 92.4672C196.439 92.5666 196.447 92.666 196.465 92.7637L197.478 96.8141C197.597 97.4353 197.904 97.8845 198.537 97.8845H208.378C209.011 97.8845 209.554 97.4353 209.673 96.8141L210.686 92.7637C210.688 92.7532 210.689 92.7428 210.691 92.7323C210.715 92.2475 210.677 91.7617 210.577 91.2867Z" fill="#CCCCCC"/>
<path opacity="0.2" d="M198.545 90.9818L198.742 93.5385C198.807 94.3907 198.71 95.2311 198.776 96.0833C198.813 96.5633 199.012 97.0551 199.049 97.5351C199.054 97.5916 199.142 97.592 199.138 97.5351L198.941 94.9784L198.744 92.4218L198.634 90.9818C198.629 90.9254 198.541 90.9249 198.545 90.9818Z" fill="black"/>
<path opacity="0.2" d="M200.254 91.0831L200.331 93.6024L200.407 96.1218L200.45 97.5362C200.452 97.5931 200.541 97.5933 200.539 97.5362L200.462 95.0168L200.386 92.4974L200.343 91.0831C200.341 91.0262 200.252 91.0259 200.254 91.0831Z" fill="black"/>
<path opacity="0.2" d="M201.91 91.2342L201.886 93.669L201.863 96.089L201.85 97.4614C201.851 97.4858 201.871 97.505 201.896 97.5041C201.919 97.5033 201.938 97.4846 201.939 97.4614L201.962 95.0266L201.985 92.6065L201.998 91.2342C201.998 91.2097 201.977 91.1906 201.953 91.1914C201.929 91.1922 201.911 91.2109 201.91 91.2342Z" fill="black"/>
<path opacity="0.2" d="M203.161 91.1597L203.209 93.6246L203.257 96.0747L203.285 97.4621C203.285 97.4865 203.306 97.5057 203.33 97.5048C203.354 97.504 203.372 97.4854 203.373 97.4621L203.325 94.9972L203.276 92.5471L203.249 91.1597C203.248 91.1352 203.228 91.1161 203.203 91.1169C203.18 91.1177 203.161 91.1364 203.161 91.1597Z" fill="black"/>
<path opacity="0.2" d="M204.984 91.0585L205.039 93.5891L205.094 96.1197L205.125 97.5362C205.126 97.5607 205.147 97.5799 205.171 97.579C205.195 97.5782 205.213 97.5595 205.214 97.5362L205.159 95.0056L205.103 92.475L205.072 91.0585C205.071 91.034 205.051 91.0149 205.026 91.0158C205.003 91.0167 204.984 91.0353 204.984 91.0585Z" fill="black"/>
<path opacity="0.2" d="M206.497 91.1352L206.69 93.685L206.883 96.2274L206.991 97.6603C206.996 97.7168 207.084 97.7173 207.08 97.6603L206.887 95.1105L206.694 92.5681L206.585 91.1352C206.581 91.0787 206.492 91.0783 206.497 91.1352Z" fill="black"/>
<path opacity="0.2" d="M208.178 91.4324L208.295 93.7654C208.334 94.5431 208.136 95.3207 208.175 96.0984L208.24 97.4084C208.243 97.4652 208.332 97.4655 208.329 97.4084C208.29 96.6307 208.488 95.8531 208.449 95.0754L208.332 92.7424L208.267 91.4324C208.264 91.3756 208.175 91.3753 208.178 91.4324Z" fill="black"/>
<path d="M203.044 85.0405C203.232 85.0405 203.384 84.9347 203.384 84.8043C203.384 84.6738 203.232 84.5681 203.044 84.5681C202.856 84.5681 202.704 84.6738 202.704 84.8043C202.704 84.9347 202.856 85.0405 203.044 85.0405Z" fill="#E6E6E6"/>
<path d="M205.2 85.572C205.388 85.572 205.54 85.4662 205.54 85.3358C205.54 85.2053 205.388 85.0995 205.2 85.0995C205.013 85.0995 204.86 85.2053 204.86 85.3358C204.86 85.4662 205.013 85.572 205.2 85.572Z" fill="#3F3D56"/>
<path d="M202.187 86.7235C202.375 86.7235 202.527 86.6177 202.527 86.4873C202.527 86.3568 202.375 86.2511 202.187 86.2511C202 86.2511 201.848 86.3568 201.848 86.4873C201.848 86.6177 202 86.7235 202.187 86.7235Z" fill="#FF6584"/>
<path d="M204.996 87.0348C205.115 87.0348 205.211 86.968 205.211 86.8855C205.211 86.8031 205.115 86.7363 204.996 86.7363C204.878 86.7363 204.782 86.8031 204.782 86.8855C204.782 86.968 204.878 87.0348 204.996 87.0348Z" fill="#E6E6E6"/>
<path d="M206.359 87.3707C206.478 87.3707 206.574 87.3039 206.574 87.2214C206.574 87.139 206.478 87.0721 206.359 87.0721C206.24 87.0721 206.144 87.139 206.144 87.2214C206.144 87.3039 206.24 87.3707 206.359 87.3707Z" fill="#3F3D56"/>
<path d="M204.455 88.0985C204.573 88.0985 204.67 88.0317 204.67 87.9492C204.67 87.8668 204.573 87.7999 204.455 87.7999C204.336 87.7999 204.24 87.8668 204.24 87.9492C204.24 88.0317 204.336 88.0985 204.455 88.0985Z" fill="#FF6584"/>
<path d="M207.005 87.8616C207.123 87.8616 207.219 87.7947 207.219 87.7123C207.219 87.6298 207.123 87.563 207.005 87.563C206.886 87.563 206.79 87.6298 206.79 87.7123C206.79 87.7947 206.886 87.8616 207.005 87.8616Z" fill="#E6E6E6"/>
<path d="M208.367 88.1974C208.486 88.1974 208.582 88.1306 208.582 88.0481C208.582 87.9657 208.486 87.8989 208.367 87.8989C208.249 87.8989 208.153 87.9657 208.153 88.0481C208.153 88.1306 208.249 88.1974 208.367 88.1974Z" fill="#3F3D56"/>
<path d="M206.463 88.9252C206.582 88.9252 206.678 88.8584 206.678 88.7759C206.678 88.6935 206.582 88.6266 206.463 88.6266C206.345 88.6266 206.249 88.6935 206.249 88.7759C206.249 88.8584 206.345 88.9252 206.463 88.9252Z" fill="#FF6584"/>
<path d="M201.471 87.0741C201.487 86.9567 201.434 86.8524 201.352 86.8412C201.271 86.8299 201.191 86.916 201.175 87.0334C201.159 87.1508 201.212 87.2551 201.294 87.2663C201.376 87.2776 201.455 87.1915 201.471 87.0741Z" fill="#E6E6E6"/>
<path d="M200.952 88.3777C200.968 88.2603 200.915 88.156 200.834 88.1448C200.752 88.1335 200.673 88.2196 200.656 88.337C200.64 88.4544 200.693 88.5587 200.775 88.57C200.857 88.5812 200.936 88.4952 200.952 88.3777Z" fill="#3F3D56"/>
<path d="M200.491 86.3929C200.507 86.2754 200.454 86.1711 200.372 86.1599C200.291 86.1486 200.211 86.2347 200.195 86.3521C200.179 86.4695 200.232 86.5738 200.314 86.5851C200.395 86.5963 200.475 86.5103 200.491 86.3929Z" fill="#FF6584"/>
<path d="M203.805 86.3655C203.821 86.2481 203.768 86.1438 203.686 86.1325C203.604 86.1212 203.525 86.2073 203.509 86.3247C203.492 86.4421 203.546 86.5464 203.627 86.5577C203.709 86.569 203.788 86.4829 203.805 86.3655Z" fill="#E6E6E6"/>
<path d="M203.286 87.6691C203.302 87.5517 203.249 87.4474 203.167 87.4362C203.085 87.4249 203.006 87.511 202.99 87.6284C202.974 87.7458 203.027 87.8501 203.108 87.8613C203.19 87.8726 203.269 87.7865 203.286 87.6691Z" fill="#3F3D56"/>
<path d="M202.824 85.6842C202.841 85.5668 202.787 85.4625 202.706 85.4512C202.624 85.4399 202.545 85.526 202.528 85.6434C202.512 85.7608 202.565 85.8651 202.647 85.8764C202.729 85.8876 202.808 85.8016 202.824 85.6842Z" fill="#FF6584"/>
<path d="M204.436 84.9228C204.453 84.8054 204.399 84.7011 204.318 84.6899C204.236 84.6786 204.157 84.7647 204.14 84.8821C204.124 84.9995 204.177 85.1038 204.259 85.115C204.341 85.1263 204.42 85.0402 204.436 84.9228Z" fill="#3F3D56"/>
<path d="M203.976 82.9383C203.992 82.8208 203.939 82.7165 203.858 82.7053C203.776 82.694 203.697 82.7801 203.68 82.8975C203.664 83.0149 203.717 83.1192 203.799 83.1305C203.881 83.1417 203.96 83.0557 203.976 82.9383Z" fill="#FF6584"/>
</g>
<defs>
<clipPath id="clip0_5_3350">
<rect width="343" height="216" fill="white"/>
</clipPath>
</defs>
</svg>
