<svg width="289" height="213" viewBox="0 0 289 213" fill="none" xmlns="http://www.w3.org/2000/svg">
<g clip-path="url(#clip0_5_3812)">
<path d="M278.89 191.925C278.023 184.974 273.701 178.124 267.05 175.862C269.673 183.017 269.672 190.867 267.048 198.022C266.026 200.777 264.601 203.736 265.563 206.513C266.161 208.241 267.624 209.564 269.26 210.39C270.896 211.217 272.711 211.611 274.503 211.997L274.856 212.288C277.702 205.883 279.757 198.877 278.89 191.925Z" fill="#F0F0F0"/>
<path d="M266.983 175.994C270.857 180.32 273.264 185.752 273.864 191.52C274.015 192.759 273.969 194.014 273.728 195.239C273.455 196.425 272.867 197.516 272.028 198.4C271.262 199.239 270.38 200.009 269.832 201.019C269.559 201.54 269.4 202.113 269.365 202.7C269.329 203.287 269.419 203.875 269.628 204.425C270.112 205.809 271.066 206.937 272.037 208.008C273.116 209.196 274.255 210.414 274.713 211.991C274.769 212.181 275.063 212.084 275.008 211.894C274.21 209.151 271.539 207.594 270.266 205.124C269.671 203.971 269.422 202.633 269.979 201.417C270.466 200.353 271.374 199.558 272.158 198.715C272.989 197.865 273.6 196.826 273.935 195.687C274.238 194.478 274.332 193.226 274.214 191.986C273.992 189.189 273.33 186.444 272.253 183.852C271.04 180.888 269.327 178.151 267.188 175.762C267.056 175.614 266.852 175.847 266.983 175.994Z" fill="white"/>
<path d="M273.78 189.651C274.737 189.42 275.581 188.856 276.16 188.062C276.739 187.268 277.016 186.294 276.941 185.315C276.925 185.117 276.616 185.133 276.632 185.331C276.703 186.242 276.445 187.149 275.904 187.888C275.363 188.626 274.576 189.148 273.683 189.358C273.489 189.404 273.588 189.697 273.78 189.651Z" fill="white"/>
<path d="M272.473 198.025C270.744 196.996 269.468 195.356 268.899 193.431C268.843 193.24 268.549 193.337 268.605 193.527C269.201 195.53 270.532 197.234 272.333 198.301C272.505 198.402 272.644 198.126 272.473 198.025Z" fill="white"/>
<path d="M270.753 181.18C270.401 181.347 270.014 181.423 269.625 181.404C269.236 181.384 268.858 181.268 268.525 181.067C268.355 180.964 268.217 181.24 268.386 181.343C268.755 181.564 269.172 181.691 269.602 181.713C270.031 181.736 270.46 181.654 270.85 181.473C270.888 181.459 270.92 181.431 270.938 181.395C270.956 181.359 270.96 181.317 270.948 181.278C270.935 181.239 270.907 181.207 270.871 181.189C270.834 181.171 270.792 181.167 270.753 181.18Z" fill="white"/>
<path d="M246.776 188.279C246.881 188.346 246.985 188.414 247.09 188.485C248.491 189.403 249.814 190.433 251.048 191.564C251.144 191.65 251.241 191.739 251.335 191.828C254.277 194.586 256.68 197.865 258.422 201.498C259.114 202.944 259.694 204.44 260.158 205.974C260.798 208.093 261.324 210.44 262.592 212.173C262.722 212.355 262.863 212.53 263.015 212.694H274.473C274.499 212.681 274.525 212.671 274.551 212.658L275.009 212.679C274.99 212.598 274.969 212.515 274.951 212.434C274.941 212.387 274.928 212.34 274.917 212.293C274.909 212.262 274.901 212.231 274.896 212.202C274.894 212.191 274.891 212.181 274.888 212.173C274.883 212.145 274.875 212.118 274.87 212.092C274.755 211.626 274.637 211.16 274.515 210.693C274.515 210.691 274.515 210.691 274.512 210.688C273.617 207.125 272.3 203.68 270.591 200.427C270.538 200.33 270.486 200.231 270.429 200.135C269.637 198.694 268.729 197.321 267.713 196.028C267.154 195.322 266.56 194.644 265.932 193.998C264.308 192.332 262.431 190.93 260.37 189.845C256.26 187.682 251.502 186.853 247.111 188.174C246.998 188.208 246.888 188.242 246.776 188.279Z" fill="#F0F0F0"/>
<path d="M246.802 188.424C252.507 189.553 257.711 192.446 261.673 196.691C262.542 197.59 263.264 198.62 263.812 199.743C264.309 200.853 264.5 202.077 264.363 203.286C264.258 204.416 264.019 205.56 264.192 206.695C264.289 207.275 264.508 207.828 264.834 208.318C265.16 208.808 265.587 209.224 266.086 209.537C267.308 210.352 268.751 210.68 270.174 210.952C271.753 211.254 273.398 211.543 274.716 212.526C274.876 212.645 275.052 212.391 274.893 212.272C272.599 210.561 269.526 210.92 267.017 209.713C265.847 209.149 264.84 208.23 264.55 206.925C264.296 205.783 264.541 204.603 264.657 203.46C264.808 202.283 264.667 201.086 264.247 199.975C263.759 198.828 263.078 197.773 262.235 196.853C260.368 194.753 258.182 192.959 255.756 191.536C252.997 189.897 249.976 188.74 246.826 188.116C246.631 188.077 246.608 188.385 246.802 188.424Z" fill="white"/>
<path d="M260.478 195.249C261.102 194.49 261.435 193.534 261.418 192.553C261.401 191.571 261.034 190.628 260.383 189.891C260.251 189.742 260.013 189.94 260.145 190.089C260.752 190.774 261.094 191.653 261.108 192.567C261.123 193.481 260.809 194.37 260.223 195.074C260.096 195.227 260.352 195.402 260.478 195.249Z" fill="white"/>
<path d="M264.492 202.72C262.49 202.936 260.48 202.392 258.863 201.197C258.703 201.078 258.527 201.332 258.687 201.45C260.372 202.691 262.465 203.253 264.547 203.024C264.746 203.002 264.689 202.698 264.492 202.72Z" fill="white"/>
<path d="M252.944 190.303C252.764 190.647 252.501 190.941 252.178 191.158C251.856 191.376 251.485 191.51 251.097 191.549C250.899 191.569 250.955 191.872 251.153 191.853C251.58 191.808 251.99 191.659 252.347 191.419C252.704 191.18 252.996 190.857 253.199 190.478C253.221 190.444 253.229 190.403 253.222 190.363C253.214 190.323 253.192 190.288 253.159 190.264C253.126 190.24 253.084 190.232 253.044 190.239C253.003 190.246 252.967 190.269 252.944 190.303Z" fill="white"/>
<path d="M42.9209 61.1082C32.6293 66.5189 24.5203 77.2026 24.9018 88.7942C34.4812 80.5541 46.6758 75.9571 59.3281 75.8165C64.2077 75.7799 69.6389 76.2456 73.3904 73.1349C75.7247 71.1994 76.9215 68.1662 77.2477 65.1573C77.5739 62.1481 77.1227 59.1152 76.6725 56.122L76.9177 55.4071C65.3001 54.7664 53.2124 55.6974 42.9209 61.1082Z" fill="#F0F0F0"/>
<path d="M25.1447 88.8191C29.5964 80.3064 36.6258 73.4082 45.2345 69.1045C47.0713 68.1452 49.0482 67.4805 51.0926 67.1349C53.0951 66.8623 55.1342 67.1292 56.9981 67.9079C58.7507 68.5991 60.4631 69.5085 62.3537 69.763C63.3234 69.8789 64.3068 69.7893 65.2393 69.4998C66.1718 69.2104 67.0324 68.7278 67.7646 68.0836C69.6311 66.5257 70.8246 64.3923 71.9191 62.2655C73.1343 59.9042 74.359 57.4323 76.5391 55.8013C76.8032 55.6036 76.4801 55.2066 76.2164 55.404C72.4234 58.2416 71.5679 63.2763 68.4768 66.689C67.0344 68.2815 65.1018 69.4503 62.8855 69.303C60.9473 69.1741 59.1807 68.2379 57.4122 67.5227C55.6051 66.7366 53.6323 66.4034 51.6662 66.5524C49.6107 66.7932 47.6113 67.3809 45.7537 68.2903C41.5387 70.2712 37.6624 72.9004 34.2668 76.0815C30.3712 79.6907 27.1237 83.9376 24.6649 88.6384C24.5128 88.9294 24.9936 89.1082 25.1447 88.8191Z" fill="white"/>
<path d="M42.3807 70.3276C41.4602 68.9859 40.0913 68.0141 38.5183 67.5856C36.9453 67.1571 35.2708 67.3 33.7937 67.9886C33.4953 68.1289 33.7001 68.5977 33.9989 68.4572C35.3731 67.8134 36.933 67.6805 38.3969 68.0825C39.8609 68.4845 41.1324 69.3948 41.9821 70.6493C42.1671 70.9216 42.5646 70.5985 42.3807 70.3276Z" fill="white"/>
<path d="M56.156 67.4407C55.5702 70.7117 53.7691 73.6424 51.1118 75.6485C50.8484 75.8471 51.1714 76.2441 51.4345 76.0458C54.1958 73.9531 56.0639 70.8994 56.6659 67.4942C56.7231 67.1696 56.2128 67.1179 56.156 67.4407Z" fill="white"/>
<path d="M30.9941 79.963C31.4588 80.4081 31.8053 80.9614 32.0024 81.573C32.1996 82.1846 32.2413 82.8354 32.1237 83.4671C32.0625 83.7908 32.5729 83.8422 32.6337 83.5206C32.7603 82.8221 32.7134 82.1034 32.4971 81.4272C32.2807 80.7509 31.9016 80.1378 31.3927 79.6413C31.3486 79.5905 31.2869 79.5583 31.2199 79.5513C31.1529 79.5443 31.0857 79.563 31.0321 79.6035C30.9795 79.6464 30.946 79.7081 30.9389 79.7755C30.9318 79.8428 30.9516 79.9102 30.9941 79.963Z" fill="white"/>
<path d="M56.0667 112.815C56.1107 112.614 56.1547 112.413 56.2027 112.21C56.8085 109.51 57.6334 106.863 58.6693 104.297C58.7462 104.097 58.8272 103.896 58.9097 103.699C61.4713 97.5412 65.1575 91.9113 69.7809 87.0952C71.6225 85.1804 73.6075 83.4081 75.7188 81.7936C78.6347 79.5639 81.9743 77.3777 83.9236 74.4056C84.1305 74.0978 84.318 73.7776 84.4851 73.4466L77.7736 55.7607C77.7381 55.7281 77.7066 55.6939 77.671 55.6611L77.4354 54.9427C77.3207 55.0184 77.2033 55.0994 77.0886 55.1751C77.0219 55.2187 76.9566 55.2663 76.8899 55.3099C76.8459 55.3402 76.8019 55.3708 76.7605 55.3957C76.7458 55.4057 76.7312 55.4159 76.7205 55.4245C76.6791 55.4493 76.6432 55.4768 76.6058 55.5001C75.9486 55.9509 75.2934 56.407 74.6402 56.8685C74.6361 56.87 74.6361 56.87 74.6336 56.8755C69.6658 60.4047 64.9499 64.3782 60.9891 68.939C60.8699 69.0762 60.7467 69.2148 60.6306 69.3601C58.8567 71.4258 57.2551 73.6325 55.8418 75.9582C55.0721 77.2342 54.3676 78.5482 53.7312 79.8952C52.0934 83.3787 51.0155 87.0974 50.537 90.9148C49.5843 98.525 51.0839 106.354 55.7088 112.359C55.8272 112.513 55.9442 112.663 56.0667 112.815Z" fill="#F0F0F0"/>
<path d="M56.2769 112.69C54.6896 103.222 56.1356 93.4951 60.4097 84.8924C61.2969 83.0242 62.4739 81.307 63.8975 79.8041C65.3317 78.3847 67.121 77.3741 69.0796 76.8772C70.8964 76.3773 72.8129 76.0757 74.4762 75.1443C75.3205 74.6549 76.0515 73.9932 76.6212 73.2025C77.191 72.4118 77.5866 71.5099 77.7821 70.5561C78.3314 68.1921 77.9958 65.7724 77.5851 63.4175C77.1291 60.8028 76.6139 58.0941 77.3694 55.4835C77.461 55.1672 76.9632 55.0441 76.8718 55.36C75.5573 59.902 77.9152 64.4353 77.5084 69.0153C77.3186 71.1524 76.4816 73.2454 74.6229 74.4579C72.9976 75.5182 71.0216 75.8309 69.1776 76.3212C67.2598 76.778 65.4834 77.696 64.0036 78.9949C62.5079 80.4207 61.2664 82.0898 60.3325 83.9307C58.1636 88.0419 56.6566 92.4675 55.8669 97.0453C54.9364 102.265 54.9086 107.605 55.7846 112.834C55.839 113.157 56.3309 113.012 56.2769 112.69Z" fill="white"/>
<path d="M58.87 87.5817C57.3247 87.0629 55.6446 87.1084 54.1299 87.7103C52.6152 88.3122 51.3644 89.4312 50.601 90.8675C50.4475 91.1586 50.8942 91.41 51.0478 91.1185C51.7563 89.7797 52.9215 88.7375 54.3332 88.1799C55.7448 87.6223 57.31 87.5861 58.7461 88.0777C59.0583 88.1842 59.1805 87.6876 58.87 87.5817Z" fill="white"/>
<path d="M68.1249 77.0097C69.6329 79.973 69.965 83.3939 69.055 86.5903C68.9646 86.907 69.4623 87.0302 69.5526 86.7139C70.4933 83.3858 70.1405 79.8265 68.5644 76.7464C68.414 76.4529 67.9753 76.7178 68.1249 77.0097Z" fill="white"/>
<path d="M55.598 102.109C56.2379 102.185 56.8487 102.419 57.3755 102.789C57.9023 103.159 58.3288 103.654 58.6164 104.229C58.763 104.524 59.2016 104.258 59.0559 103.965C58.7351 103.332 58.2636 102.786 57.6824 102.376C57.1012 101.966 56.4281 101.704 55.7219 101.613C55.6561 101.598 55.5873 101.61 55.5296 101.644C55.4719 101.679 55.4295 101.734 55.4111 101.799C55.3951 101.865 55.4057 101.934 55.4406 101.992C55.4756 102.05 55.5322 102.092 55.598 102.109Z" fill="white"/>
<path d="M157.066 42.9022H156.07V15.7278C156.07 13.6624 155.662 11.6172 154.869 9.70904C154.076 7.80086 152.914 6.06704 151.449 4.60657C149.984 3.14611 148.245 1.98761 146.33 1.19721C144.416 0.406815 142.364 2.00674e-06 140.292 0H82.5341C78.3494 -8.10543e-06 74.3361 1.65701 71.377 4.60654C68.418 7.55607 66.7556 11.5565 66.7556 15.7278V164.809C66.7556 168.98 68.418 172.98 71.377 175.93C74.336 178.879 78.3493 180.536 82.534 180.536H140.292C144.477 180.536 148.49 178.879 151.449 175.93C154.408 172.98 156.07 168.98 156.07 164.809V62.2454H157.066V42.9022Z" fill="#3F3D56"/>
<path d="M140.929 4.09184H133.389C133.736 4.93914 133.868 5.85843 133.775 6.76872C133.681 7.67902 133.364 8.55238 132.852 9.31188C132.34 10.0714 131.649 10.6937 130.838 11.124C130.028 11.5543 129.124 11.7794 128.206 11.7795H95.1174C94.1994 11.7794 93.2955 11.5543 92.4853 11.124C91.6751 10.6937 90.9835 10.0714 90.4715 9.31189C89.9594 8.55239 89.6426 7.67902 89.5489 6.76872C89.4552 5.85842 89.5876 4.93913 89.9343 4.09183H82.8925C79.7675 4.09183 76.7704 5.32927 74.5606 7.53195C72.3508 9.73462 71.1094 12.7221 71.1094 15.8371V164.699C71.1094 167.814 72.3508 170.802 74.5606 173.004C76.7703 175.207 79.7674 176.445 82.8925 176.445H140.929C144.054 176.445 147.051 175.207 149.261 173.004C151.47 170.802 152.712 167.814 152.712 164.699V15.8372C152.712 14.2947 152.407 12.7674 151.815 11.3424C151.223 9.9174 150.355 8.62261 149.261 7.53196C148.166 6.4413 146.867 5.57615 145.438 4.98589C144.008 4.39563 142.476 4.09183 140.929 4.09184Z" fill="white"/>
<path d="M111.928 91.4306C105.051 91.4306 98.3284 89.3979 92.6105 85.5896C86.8926 81.7813 82.4361 76.3684 79.8044 70.0354C77.1728 63.7024 76.4842 56.7338 77.8258 50.0108C79.1674 43.2877 82.479 37.1122 87.3416 32.2651C92.2043 27.4181 98.3997 24.1172 105.144 22.7799C111.889 21.4426 118.88 22.129 125.234 24.7522C131.587 27.3754 137.017 31.8177 140.838 37.5172C144.658 43.2167 146.698 49.9176 146.698 56.7724C146.687 65.9611 143.021 74.7705 136.502 81.268C129.984 87.7654 121.146 91.4202 111.928 91.4306ZM111.928 22.7252C105.172 22.7252 98.5682 24.722 92.9512 28.4632C87.3342 32.2043 82.9562 37.5217 80.371 43.743C77.7857 49.9643 77.1093 56.81 78.4272 63.4145C79.7452 70.019 82.9983 76.0856 87.7752 80.8472C92.5521 85.6087 98.6382 88.8514 105.264 90.1651C111.89 91.4789 118.757 90.8046 124.999 88.2277C131.24 85.6508 136.575 81.2869 140.328 75.6879C144.081 70.0889 146.084 63.5062 146.084 56.7724C146.074 47.7456 142.472 39.0915 136.069 32.7087C129.665 26.3258 120.983 22.7354 111.928 22.7252Z" fill="#3F3D56"/>
<path d="M107.92 59.7665C106.72 56.2213 102.437 54.0519 98.8572 55.176C95.7612 56.1481 93.6554 59.4386 93.8235 62.6328C92.7882 58.7314 88.8048 55.6803 84.7194 55.9662C80.128 56.2875 76.2516 60.7635 76.6029 65.3379C76.4411 64.1378 75.8736 63.0287 74.994 62.1936C74.1144 61.3585 72.9754 60.8475 71.765 60.7449C70.5547 60.6423 69.3454 60.9542 68.337 61.6293C67.3286 62.3043 66.5813 63.302 66.2186 64.4576L66.22 64.3728C65.4895 63.9636 64.5002 64.6807 64.4564 65.5149C64.4127 66.3491 65.0697 67.0922 65.84 67.4212C66.6102 67.7502 67.4753 67.7543 68.3133 67.7533C78.771 67.7399 89.2288 67.7264 99.6867 67.713C102.116 67.7099 104.794 67.6149 106.579 65.9731C108.23 64.4557 108.638 61.8872 107.92 59.7665Z" fill="#E4E4E4"/>
<path d="M132.921 75.9522C132.575 75.0388 131.899 74.2872 131.026 73.8449C130.152 73.4026 129.145 73.3015 128.201 73.5614C126.588 74.0677 125.492 75.7815 125.579 77.445C125.04 75.4131 122.965 73.8241 120.838 73.973C118.446 74.1403 116.427 76.4715 116.61 78.8538C116.526 78.2288 116.231 77.6512 115.773 77.2163C115.314 76.7814 114.721 76.5152 114.091 76.4618C113.46 76.4083 112.831 76.5708 112.305 76.9224C111.78 77.2739 111.391 77.7935 111.202 78.3954L111.203 78.3512C110.822 78.1381 110.307 78.5116 110.284 78.946C110.292 79.1641 110.365 79.3749 110.493 79.5517C110.622 79.7284 110.8 79.8632 111.005 79.9389C111.418 80.0827 111.856 80.1415 112.293 80.1118C117.74 80.1048 123.186 80.0978 128.633 80.0908C129.898 80.0892 131.292 80.0397 132.223 79.1847C133.082 78.3944 133.295 77.0567 132.921 75.9522Z" fill="#E4E4E4"/>
<path d="M118.82 48.8169C125.432 48.8169 130.792 43.4743 130.792 36.8839C130.792 30.2935 125.432 24.9509 118.82 24.9509C112.209 24.9509 106.849 30.2935 106.849 36.8839C106.849 43.4743 112.209 48.8169 118.82 48.8169Z" fill="#FF6582"/>
<path d="M151.816 40.9629C150.616 37.4177 146.332 35.2483 142.752 36.3725C139.656 37.3446 137.551 40.6351 137.719 43.8293C136.683 39.9279 132.7 36.8768 128.615 37.1627C124.023 37.484 120.147 41.9599 120.498 46.5343C120.336 45.3343 119.769 44.2251 118.889 43.39C118.01 42.555 116.871 42.0439 115.66 41.9413C114.45 41.8387 113.241 42.1507 112.232 42.8257C111.224 43.5007 110.477 44.4984 110.114 45.654L110.115 45.5693C109.385 45.1601 108.395 45.8771 108.352 46.7114C108.308 47.5455 108.965 48.2887 109.735 48.6177C110.505 48.9466 111.371 48.9508 112.209 48.9497C122.666 48.9363 133.124 48.9229 143.582 48.9095C146.011 48.9063 148.689 48.8113 150.475 47.1696C152.125 45.6522 152.533 43.0836 151.816 40.9629Z" fill="#E4E4E4"/>
<path d="M128.433 59.6936L130.739 57.8552C128.948 57.6582 128.212 58.6321 127.911 59.4029C126.511 58.8236 124.988 59.5827 124.988 59.5827L129.601 61.2523C129.368 60.6326 128.963 60.0919 128.433 59.6936Z" fill="#3F3D56"/>
<path d="M98.6859 77.7739L100.992 75.9356C99.2005 75.7386 98.4644 76.7124 98.1632 77.4832C96.7637 76.904 95.2402 77.6631 95.2402 77.6631L99.8539 79.3327C99.6212 78.713 99.216 78.1723 98.6859 77.7739Z" fill="#3F3D56"/>
<path d="M93.6071 46.6757L95.913 44.8374C94.1216 44.6404 93.3856 45.6142 93.0844 46.385C91.6849 45.8058 90.1614 46.5649 90.1614 46.5649L94.7751 48.2345C94.5423 47.6148 94.1372 47.0741 93.6071 46.6757Z" fill="#3F3D56"/>
<path d="M110.114 153.683C121.334 153.683 130.429 152.712 130.429 151.513C130.429 150.315 121.334 149.344 110.114 149.344C98.894 149.344 89.7986 150.315 89.7986 151.513C89.7986 152.712 98.894 153.683 110.114 153.683Z" fill="#F0F0F0"/>
<path d="M10.3578 116.578H105.649C108.093 116.579 110.458 117.44 112.326 119.01C114.194 120.579 115.445 122.757 115.858 125.157C116.271 127.558 115.82 130.027 114.583 132.127C113.347 134.228 111.406 135.826 109.102 136.638V143.766L102.542 137.228H10.3578C7.61169 137.226 4.9786 136.138 3.03735 134.202C1.09611 132.265 0.00561523 129.64 0.00561523 126.903C0.00561523 124.166 1.09611 121.54 3.03735 119.604C4.9786 117.668 7.61169 116.58 10.3578 116.578Z" fill="#15A3B7"/>
<path d="M14.8463 124.494H98.7444C98.9276 124.494 99.1032 124.421 99.2327 124.292C99.3622 124.163 99.4349 123.988 99.4349 123.806C99.4349 123.623 99.3622 123.448 99.2327 123.319C99.1032 123.19 98.9276 123.117 98.7444 123.117H14.8463C14.6631 123.117 14.4875 123.19 14.358 123.319C14.2285 123.448 14.1558 123.623 14.1558 123.806C14.1558 123.988 14.2285 124.163 14.358 124.292C14.4875 124.421 14.6631 124.494 14.8463 124.494Z" fill="white"/>
<path d="M14.8463 129.656H98.7444C98.9276 129.656 99.1032 129.584 99.2327 129.455C99.3622 129.326 99.4349 129.15 99.4349 128.968C99.4349 128.785 99.3622 128.61 99.2327 128.481C99.1032 128.352 98.9276 128.28 98.7444 128.28H14.8463C14.6631 128.28 14.4875 128.352 14.358 128.481C14.2285 128.61 14.1558 128.785 14.1558 128.968C14.1558 129.15 14.2285 129.326 14.358 129.455C14.4875 129.584 14.6631 129.656 14.8463 129.656Z" fill="white"/>
<path d="M221.884 152.005C222.342 151.745 222.738 151.388 223.043 150.96C223.348 150.531 223.555 150.041 223.65 149.524C223.744 149.008 223.724 148.476 223.59 147.968C223.456 147.46 223.212 146.987 222.875 146.583L227.067 114.118L219.233 114.446L217.576 146.255C216.933 146.864 216.536 147.687 216.461 148.569C216.385 149.45 216.637 150.328 217.168 151.037C217.699 151.746 218.473 152.236 219.342 152.414C220.211 152.592 221.116 152.447 221.884 152.005Z" fill="#FFB6B6"/>
<path d="M258.341 114.114L259.348 130.713L252.551 148.605L249.304 143.819L252.399 126.414L251.54 115.278L258.341 114.114Z" fill="#FFB6B6"/>
<path d="M248.61 165.294L249.444 207.964L245.785 208.529L237.875 164.855L248.61 165.294Z" fill="#FFB6B6"/>
<path d="M224.878 167.355L230.606 209.65H234.308L235.419 165.285L224.878 167.355Z" fill="#FFB6B6"/>
<path d="M235.655 92.4148C239.861 92.4148 243.27 89.0165 243.27 84.8245C243.27 80.6325 239.861 77.2342 235.655 77.2342C231.45 77.2342 228.04 80.6325 228.04 84.8245C228.04 89.0165 231.45 92.4148 235.655 92.4148Z" fill="#FFB6B6"/>
<path d="M242.062 88.0407C242.321 88.609 242.728 88.2536 243.203 87.8658C244.088 87.1422 244.604 86.0113 244.9 84.9336C245.411 83.1417 245.458 81.2496 245.035 79.4348C244.603 77.6164 243.598 75.9839 242.167 74.7771C241.84 74.504 241.484 74.2672 241.105 74.071C239.829 73.425 238.321 73.397 236.906 73.6067C235.047 73.8917 233.261 74.5304 231.645 75.4879C230.911 75.8744 230.272 76.417 229.772 77.0773C229.526 77.41 229.366 77.7982 229.307 78.2073C229.247 78.6164 229.291 79.0338 229.432 79.4223C229.456 79.4901 229.498 79.5501 229.553 79.5962C229.655 79.6496 229.774 79.6627 229.885 79.633C231.035 79.4758 232.202 79.4795 233.351 79.6439C233.509 79.6452 233.666 79.683 233.808 79.7544C233.949 79.8258 234.073 79.9289 234.168 80.0557C234.233 80.2803 234.283 80.5087 234.32 80.7396C234.58 81.4335 235.73 81.2632 236.162 81.8654C236.434 82.2438 236.314 82.7813 236.504 83.2066C236.808 83.8886 237.736 83.9969 238.476 83.8796C239.215 83.7624 240.015 83.53 240.679 83.8753C241.318 84.2078 241.597 84.9637 241.758 85.6645C241.914 86.3451 241.787 87.4379 242.062 88.0407Z" fill="#2F2E41"/>
<path d="M249.54 141.493L252.736 148.94L249.54 158.96V169.332L237.303 169.405L237.033 156.651L235.387 169.405H222.927L220.62 143.841L223.929 137.791L249.54 141.493Z" fill="#2F2E41"/>
<path d="M233.209 94.8993L232.309 96.5621C232.309 96.5621 224.544 98.0701 220.62 102.33L225.886 113.048L221.01 144.088L249.763 142.177L250.783 118.279L255.11 101.563C255.11 101.563 247.609 96.4354 244.373 96.9747L243.24 94.8993H233.209Z" fill="#15A3B7"/>
<path d="M228.011 103.446L220.62 102.33C220.62 102.33 218.597 114.159 218.614 116.86L227.534 118.279L228.011 103.446Z" fill="#15A3B7"/>
<path d="M251.578 102.318L255.11 101.563C255.11 101.563 256.472 105.873 258.721 116.023L249.541 119.216L251.578 102.318Z" fill="#15A3B7"/>
<path d="M235.026 212.426L221.729 212.425V212.258C221.729 210.89 222.274 209.577 223.245 208.61C224.215 207.642 225.532 207.099 226.904 207.099H226.905L235.026 207.099L235.026 212.426Z" fill="#2F2E41"/>
<path d="M251.053 210.398L237.912 212.426L237.886 212.26C237.676 210.908 238.014 209.528 238.824 208.424C239.635 207.32 240.853 206.582 242.209 206.372L250.236 205.134L251.053 210.398Z" fill="#2F2E41"/>
<path d="M288.693 213H171.879C171.797 213 171.719 212.968 171.662 212.911C171.604 212.853 171.572 212.775 171.572 212.694C171.572 212.613 171.604 212.536 171.662 212.478C171.719 212.421 171.797 212.389 171.879 212.389H288.693C288.775 212.389 288.853 212.421 288.91 212.478C288.968 212.536 289 212.613 289 212.694C289 212.775 288.968 212.853 288.91 212.911C288.853 212.968 288.775 213 288.693 213Z" fill="#CACACA"/>
</g>
<defs>
<clipPath id="clip0_5_3812">
<rect width="289" height="213" fill="white"/>
</clipPath>
</defs>
</svg>
